<svg width="270" height="172" viewBox="0 0 270 172" fill="none" xmlns="http://www.w3.org/2000/svg">
<path d="M70.5532 59.5476H73.1918C74.2507 59.5476 75.0492 60.4329 75.4659 61.0058C75.7436 61.3877 75.9172 61.7522 76.0561 62.1168L74.0945 62.6722C73.8688 62.2035 73.6605 61.9084 73.1745 61.5786H70.64C70.4838 61.6828 70.154 61.9605 69.963 62.2556V67.5154C69.963 67.6022 70.3276 67.9494 70.6053 68.0883H73.1397C73.4001 67.9668 73.7994 67.5849 73.7994 67.4634V65.901H71.4212V63.9221H75.9172V67.8279C75.9172 68.0362 75.9693 68.4008 76.0387 68.8174L76.247 70.0499H74.1466L74.0771 69.7374C74.0251 69.7548 73.9035 69.8416 73.8515 69.8763C73.6432 69.9978 73.4349 70.1193 73.1745 70.1193H70.5532C70.1193 70.1193 69.7026 69.9631 69.4075 69.7895C69.043 69.5638 68.3833 68.9042 68.1403 68.557C67.932 68.2272 67.8452 67.8279 67.8452 67.4807V62.2036C67.8452 61.8216 67.9147 61.4397 68.1403 61.1099C68.3486 60.8322 69.0256 60.0857 69.4075 59.8601C69.7026 59.6865 70.1366 59.5476 70.5532 59.5476Z" fill="#FCEE0A"/>
<path d="M87.4901 64.7205C87.3338 64.9636 86.7957 65.4843 86.5527 65.6579C86.4138 65.7621 86.2749 65.8315 86.1361 65.9009C86.9867 67.4633 88.3927 70.0324 88.3927 70.0324H86.0319L83.9662 66.0572H82.2997V70.0324H80.1819V59.6169H85.2507C85.6847 59.6169 86.2229 59.7732 86.5527 60.0162C86.7957 60.2072 87.3165 60.7453 87.4901 60.971C87.7157 61.2834 87.8199 61.7348 87.8199 62.1167V63.5922C87.8199 64.0088 87.7157 64.3907 87.4901 64.7205ZM85.7021 62.0646C85.6153 61.9257 85.4243 61.7348 85.2507 61.648H82.2997V64.0262H85.2507C85.3028 64.0262 85.5979 63.7831 85.7021 63.6095V62.0646Z" fill="#FCEE0A"/>
<path d="M99.0858 70.0268L98.3914 68.0305H94.7633C94.5377 68.6728 94.2773 69.3845 94.0516 70.0268H91.7949L95.4056 59.6113H97.7491L101.342 70.0268H99.0858ZM96.5687 62.6492C96.1868 63.7602 95.7875 64.8885 95.4056 65.9995H97.7491L96.5687 62.6492Z" fill="#FCEE0A"/>
<path d="M110.508 70.0268L107.141 63.899V70.0268H105.023V59.6113H107.193L110.526 65.8259V59.6113H112.643V70.0268H110.508Z" fill="#FCEE0A"/>
<path d="M124.239 68.4645C123.996 68.8117 123.337 69.4713 122.955 69.697C122.66 69.8532 122.243 70.0268 121.844 70.0268H116.792V59.6113H121.844C122.208 59.6113 122.66 59.7155 122.989 59.9238C123.371 60.1668 124.014 60.9133 124.222 61.191C124.465 61.5382 124.517 61.9027 124.517 62.2673V67.4056C124.517 67.718 124.448 68.1347 124.239 68.4645ZM122.399 62.3599C122.243 61.978 122.017 61.8044 121.757 61.6481H118.91V68.0016H121.757C122 67.8627 122.226 67.6717 122.399 67.3419V62.3599Z" fill="#FCEE0A"/>
<path d="M144.133 70.0268H141.859L140.349 63.9337C139.862 65.9474 139.342 68.0131 138.856 70.0268H136.582L134.203 59.6113H136.391L137.762 66.0342C138.248 63.9164 138.786 61.7118 139.272 59.6113H141.425L142.935 66.0342C143.386 63.9164 143.838 61.7118 144.289 59.6113H146.546L144.133 70.0268Z" fill="#FCEE0A"/>
<path d="M150.226 70.0268V59.6113H152.361V70.0268H150.226Z" fill="#FCEE0A"/>
<path d="M162.013 70.0268L158.645 63.899V70.0268H156.527V59.6113H158.697L162.03 65.8259V59.6113H164.148V70.0268H162.013Z" fill="#FCEE0A"/>
<path d="M173.788 70.0268L170.42 63.899V70.0268H168.302V59.6113H170.472L173.805 65.8259V59.6113H175.923V70.0268H173.788Z" fill="#FCEE0A"/>
<path d="M180.078 70.0268V59.6113H186.917V61.6423H182.195V63.7775H186.761V65.8085H182.195V67.9958H186.917V70.0268H180.078Z" fill="#FCEE0A"/>
<path d="M198.287 64.7205C198.131 64.9636 197.593 65.4843 197.35 65.6579C197.211 65.7621 197.072 65.8315 196.933 65.9009C197.784 67.4633 199.19 70.0324 199.19 70.0324H196.829L194.764 66.0572H193.097V70.0324H190.979V59.6169H196.048C196.482 59.6169 197.02 59.7732 197.35 60.0162C197.593 60.2072 198.114 60.7453 198.287 60.971C198.513 61.2834 198.617 61.7348 198.617 62.1167V63.5922C198.617 64.0088 198.513 64.3907 198.287 64.7205ZM196.499 62.0646C196.413 61.9257 196.222 61.7348 196.048 61.648H193.097V64.0262H196.048C196.1 64.0262 196.395 63.7831 196.499 63.6095V62.0646Z" fill="#FCEE0A"/>
<path d="M45.1107 101.447L44.2253 98.8079H39.1102L38.2075 101.447H36.4948L40.6089 89.6423H42.7325L46.8466 101.447H45.1164H45.1107ZM41.6678 91.2972L39.6194 97.2977H43.7104L41.662 91.2972H41.6678Z" fill="#FCEE0A"/>
<path d="M57.7885 101.447L52.8295 92.4372V101.447H51.2383V89.6423H53.1478L58.0662 98.7501V89.6423H59.6575V101.447H57.7885Z" fill="#FCEE0A"/>
<path d="M64.6279 101.447V89.6423H66.2423V101.447H64.6279Z" fill="#FCEE0A"/>
<path d="M79.9735 101.447V92.061L76.8836 98.3971H75.8189L72.7695 92.061V101.447H71.1782V89.6423H73.2266L76.3744 96.0768L79.5395 89.6423H81.5474V101.447H79.9735Z" fill="#FCEE0A"/>
<path d="M86.541 101.447V89.6423H93.7798V91.1757H88.1554V94.7748H93.4673V96.3082H88.1554V99.9074H93.7798V101.441H86.541V101.447Z" fill="#FCEE0A"/>
<path d="M114.281 99.8324C114.044 100.185 113.257 100.972 112.863 101.21C112.551 101.389 112.094 101.545 111.723 101.545H108.616C108.24 101.545 107.812 101.389 107.493 101.21C107.1 100.972 106.296 100.185 106.058 99.8324C105.844 99.5199 105.781 99.1264 105.781 98.7908V92.3159C105.781 91.9802 105.839 91.5868 106.058 91.2743C106.296 90.9213 107.1 90.1113 107.493 89.8798C107.806 89.7004 108.24 89.5442 108.616 89.5442H111.723C112.099 89.5442 112.551 89.7004 112.863 89.8798C113.257 90.117 114.044 90.9445 114.281 91.2743C114.495 91.5868 114.576 91.9629 114.576 92.3159V98.7908C114.576 99.1438 114.495 99.5199 114.281 99.8324ZM112.962 92.3622C112.962 92.2811 112.944 92.2233 112.921 92.1828C112.707 91.7893 112.117 91.257 111.839 91.1181C111.798 91.1007 111.741 91.0776 111.66 91.0776H108.709C108.628 91.0776 108.57 91.0949 108.529 91.1181C108.217 91.2743 107.389 92.0208 107.389 92.3564V98.7677C107.389 99.0628 108.234 99.8324 108.529 99.9654C108.57 99.9828 108.628 100.006 108.709 100.006H111.66C111.741 100.006 111.798 99.9886 111.839 99.9654C112.151 99.8092 112.962 99.0975 112.962 98.7677V92.3564V92.3622Z" fill="#FCEE0A"/>
<path d="M121.068 91.1815V94.7806H126.38V96.314H121.068V101.447H119.454V89.6423H126.675V91.1757H121.068V91.1815Z" fill="#FCEE0A"/>
<path d="M142.686 91.1816V101.452H141.072V91.1816H137.71V89.6482H146.054V91.1816H142.692H142.686Z" fill="#FCEE0A"/>
<path d="M157.355 101.447V96.314H152.28V101.447H150.666V89.6423H152.28V94.7748H157.355V89.6423H158.969V101.447H157.355Z" fill="#FCEE0A"/>
<path d="M163.951 101.447V89.6423H171.19V91.1757H165.566V94.7748H170.877V96.3082H165.566V99.9074H171.19V101.441H163.951V101.447Z" fill="#FCEE0A"/>
<path d="M187.618 96.4297V101.447H186.003V96.4297L182.051 89.6423H183.822L186.831 94.798C186.79 94.8154 189.839 89.6423 189.839 89.6423H191.593L187.618 96.4297Z" fill="#FCEE0A"/>
<path d="M195.88 101.447V89.6423H203.119V91.1757H197.495V94.7748H202.807V96.3082H197.495V99.9074H203.119V101.441H195.88V101.447Z" fill="#FCEE0A"/>
<path d="M216.162 101.447L215.276 98.8079H210.161L209.258 101.447H207.546L211.66 89.6423H213.783L217.897 101.447H216.167H216.162ZM212.719 91.2972L210.67 97.2977H214.761L212.713 91.2972H212.719Z" fill="#FCEE0A"/>
<path d="M229.395 101.447L226.623 96.5281H223.909V101.447H222.295V89.6423H227.844C228.295 89.6423 228.81 89.7986 229.163 90.0532C229.441 90.2499 230.049 90.8575 230.205 91.0947C230.419 91.4303 230.541 91.8238 230.541 92.2173V93.9879C230.541 94.3814 230.425 94.7575 230.205 95.0873C230.049 95.3246 229.435 95.9321 229.163 96.1289C228.926 96.3082 228.556 96.4645 228.278 96.4818L231.148 101.441H229.395V101.447ZM228.92 92.2636C228.92 92.2231 228.92 92.0668 228.903 92.0437C228.787 91.8296 228.214 91.1989 227.937 91.1757H223.904V94.9889H227.815C228.168 94.9889 228.758 94.4392 228.897 94.1615C228.915 94.121 228.915 93.9821 228.915 93.9474V92.2578L228.92 92.2636Z" fill="#FCEE0A"/>
<path d="M68.5859 48.1195V28.955C68.5859 28.7467 68.6554 28.469 68.7942 28.3301L73.8631 21.6642C74.002 21.5253 74.2103 21.3864 74.4186 21.317L82.6121 18.609L84.4869 15.901V9.72111L82.4732 7.70745H78.932L76.9183 9.72111V14.2345C76.9183 14.5122 76.71 14.7205 76.4323 14.7205H69.072C68.7942 14.7205 68.5859 14.5122 68.5859 14.2345V5.83266C68.5859 5.62435 68.7248 5.34661 68.8637 5.20774L73.7937 0.277746C73.9325 0.138873 74.2103 0 74.4186 0H86.9866C87.1949 0 87.4727 0.138873 87.6115 0.277746L92.5415 5.20774C92.6804 5.34661 92.8193 5.62435 92.8193 5.83266L92.7498 18.4007C92.7498 18.6784 92.6804 18.8867 92.5415 19.0256L87.5421 25.6915C87.4032 25.8304 87.1949 26.0387 86.9866 26.1081L78.7931 28.8161L76.9183 31.4547V40.8981H83.4453V36.1764C83.4453 35.8987 83.6537 35.6903 83.9314 35.6903H91.2917C91.5694 35.6903 91.7777 35.8987 91.7777 36.1764V48.1195C91.7777 48.3972 91.5694 48.6055 91.2917 48.6055H69.072C68.7942 48.6055 68.5859 48.3972 68.5859 48.1195Z" fill="#FCEE0A"/>
<path d="M110.034 48.3278L105.104 43.3978C104.965 43.2589 104.826 42.9812 104.826 42.7729V5.83266C104.826 5.62435 104.965 5.34661 105.104 5.20774L110.034 0.277746C110.173 0.138873 110.45 0 110.659 0H122.602C122.81 0 123.088 0.138873 123.227 0.277746L128.157 5.20774C128.295 5.34661 128.434 5.62435 128.434 5.83266V42.7729C128.434 42.9812 128.295 43.2589 128.157 43.3978L123.227 48.3278C123.088 48.4667 122.81 48.6055 122.602 48.6055H110.659C110.45 48.6055 110.173 48.4667 110.034 48.3278ZM120.033 38.1901V10.4155L118.019 8.40181H115.172L113.158 10.4155V38.1901L115.172 40.2037H118.019L120.033 38.1901Z" fill="#FCEE0A"/>
<path d="M140.441 48.1195V28.955C140.441 28.7467 140.51 28.469 140.649 28.3301L145.718 21.6642C145.857 21.5253 146.065 21.3864 146.274 21.317L154.467 18.609L156.342 15.901V9.72111L154.328 7.70745H150.787L148.773 9.72111V14.2345C148.773 14.5122 148.565 14.7205 148.287 14.7205H140.927C140.649 14.7205 140.441 14.5122 140.441 14.2345V5.83266C140.441 5.62435 140.58 5.34661 140.719 5.20774L145.649 0.277746C145.788 0.138873 146.065 0 146.274 0H158.842C159.05 0 159.328 0.138873 159.467 0.277746L164.396 5.20774C164.535 5.34661 164.674 5.62435 164.674 5.83266L164.605 18.4007C164.605 18.6784 164.535 18.8867 164.396 19.0256L159.397 25.6915C159.258 25.8304 159.05 26.0387 158.842 26.1081L150.648 28.8161L148.773 31.4547V40.8981H155.3V36.1764C155.3 35.8987 155.509 35.6903 155.786 35.6903H163.147C163.424 35.6903 163.633 35.8987 163.633 36.1764V48.1195C163.633 48.3972 163.424 48.6055 163.147 48.6055H140.927C140.649 48.6055 140.441 48.3972 140.441 48.1195Z" fill="#FCEE0A"/>
<path d="M200.7 5.90224V19.4424C200.7 19.6507 200.562 19.9284 200.423 20.0673L196.743 23.7474L200.423 27.4276C200.562 27.5664 200.7 27.8442 200.7 28.0525V42.8424C200.7 43.0508 200.562 43.3285 200.423 43.4674L195.493 48.3974C195.354 48.5362 195.076 48.6751 194.868 48.6751H182.508C182.3 48.6751 182.022 48.5362 181.883 48.3974L176.953 43.4674C176.814 43.3285 176.675 43.0508 176.675 42.8424V33.538C176.675 33.2602 176.884 33.0519 177.161 33.0519H184.522C184.799 33.0519 185.008 33.2602 185.008 33.538V38.8846L187.021 40.8982H190.354L192.368 38.8846V29.4412L190.354 27.4276H184.105C183.827 27.4276 183.619 27.2192 183.619 26.9415V20.2062C183.619 19.9284 183.827 19.7201 184.105 19.7201H190.354L192.368 17.7064V9.79069L190.354 7.77703H187.021L185.008 9.79069V14.2346C185.008 14.5124 184.799 14.7207 184.522 14.7207H177.161C176.884 14.7207 176.675 14.5124 176.675 14.2346V5.90224C176.675 5.69393 176.814 5.41619 176.953 5.27732L181.883 0.347326C182.022 0.208453 182.3 0.0695801 182.508 0.0695801H194.868C195.076 0.0695801 195.354 0.208453 195.493 0.347326L200.423 5.27732C200.562 5.41619 200.7 5.69393 200.7 5.90224Z" fill="#FCEE0A"/>
<path d="M38.8555 147.645L49.2305 151.563L58.3266 144.804L48.0848 140.939L38.8555 147.645ZM21.9361 135.187L30.9571 141.639L41.4767 137.444L32.5773 131.079L21.9361 135.187ZM50.1736 136.668L60.1146 141.581L58.7201 130.263L48.9064 125.414L50.1678 136.668H50.1736ZM11.4165 120.27L18.013 127.948L28.2549 126.513L21.7394 118.939L11.4107 120.27H11.4165ZM35.6961 127.485L44.0401 134.788L45.6024 123.487L37.3684 116.277L35.6961 127.48V127.485ZM25.4137 116.335L31.2291 124.621L35.0654 114.935L29.3253 106.759L25.4137 116.329V116.335ZM7.74217 112.863L18.0188 114.073L13.6443 105.092L3.3098 103.761L7.74217 112.857V112.863ZM17.8394 103.507L21.3633 112.996L27.5316 104.606L24.0539 95.2438L17.8394 103.507ZM2.26826 97.0722L11.1446 100.087L8.96309 91.3032L0.0578637 88.1728L2.26826 97.0722ZM13.1466 90.6667L14.4775 99.7398L21.5369 93.4615L20.2234 84.5042L13.1524 90.6609L13.1466 90.6667ZM12.1225 76.276L11.2603 85.4069L19.6042 80.9861L20.4548 71.9767L12.1225 76.276ZM0.0347182 79.9214L7.94469 84.9556L7.90997 75.9057L0 70.75L0.0347182 79.9214ZM13.7716 63.3898L11.2892 71.3171L19.5116 68.9736L21.9593 61.1562L13.7658 63.3898H13.7716ZM2.22197 64.2924L8.2803 70.2408L9.95835 62.2209L3.92316 56.1626L2.22775 64.2924H2.22197ZM16.8731 51.6897L13.5864 59.3162L22.0056 57.8291L25.2459 50.3068L16.8673 51.6955L16.8731 51.6897ZM6.46916 49.8844L11.0057 57.0595L14.4717 49.6356L9.98149 42.3563L6.47495 49.8844H6.46916ZM19.5869 45.6603L27.9598 45.7992L32.4731 39.168L24.1639 38.9423L19.5927 45.6603H19.5869ZM14.4775 35.2449L17.5038 42.987L22.2139 36.4947L19.2513 28.6657L14.4775 35.2449ZM35.2564 25.1997L29.2848 27.2076L25.1244 35.2217L33.1154 31.6689L35.2564 25.1997Z" fill="#FCEE0A"/>
<path d="M210.971 144.804L220.061 151.563L230.436 147.645L221.207 140.939L210.971 144.804ZM227.815 137.444L238.335 141.639L247.356 135.187L236.715 131.079L227.815 137.444ZM210.572 130.263L209.177 141.581L219.118 136.668L220.38 125.414L210.566 130.263H210.572ZM241.031 126.508L251.273 127.943L257.87 120.264L247.541 118.933L241.031 126.508ZM223.689 123.487L225.252 134.788L233.596 127.485L231.923 116.283L223.684 123.493L223.689 123.487ZM234.226 114.941L238.063 124.627L243.878 116.341L239.967 106.77L234.226 114.946V114.941ZM255.653 105.092L251.279 114.073L261.555 112.863L265.988 103.767L255.653 105.098V105.092ZM241.76 104.606L247.929 112.996L251.452 103.507L245.238 95.2438L241.76 104.606ZM260.329 91.3032L258.147 100.087L267.024 97.0722L269.234 88.1728L260.323 91.3032H260.329ZM247.761 93.4615L254.814 99.7398L256.145 90.6667L249.074 84.51L247.761 93.4673V93.4615ZM249.688 80.9861L258.032 85.4069L257.169 76.276L248.837 71.9767L249.688 80.9861ZM261.382 75.9057L261.347 84.9556L269.257 79.9214L269.292 70.75L261.382 75.9057ZM249.78 68.9678L258.003 71.3113L255.52 63.384L247.327 61.1504L249.78 68.9678ZM259.339 62.2209L261.012 70.2408L267.07 64.2924L265.369 56.1626L259.334 62.2209H259.339ZM247.286 57.8291L255.705 59.3162L252.425 51.6897L244.046 50.301L247.286 57.8233V57.8291ZM254.826 49.6298L258.286 57.0537L262.823 49.8786L259.31 42.3505L254.82 49.6298H254.826ZM236.819 39.168L241.332 45.7992L249.705 45.6603L245.134 38.9423L236.825 39.168H236.819ZM247.084 36.4947L251.794 42.987L254.826 35.2449L250.052 28.6657L247.09 36.4947H247.084ZM236.171 31.6689L244.162 35.2217L240.001 27.2076L234.035 25.1997L236.171 31.6689Z" fill="#FCEE0A"/>
<path d="M109.646 150.631C110.815 150.613 111.984 150.602 113.152 150.631C113.604 150.642 113.714 150.521 113.714 150.07C113.696 146.025 113.702 141.98 113.702 137.93V137.253C114.055 137.727 114.321 138.086 114.587 138.445C115.166 139.318 115.733 140.198 116.318 141.066C117.793 143.253 119.274 145.429 120.756 147.61C121.375 148.542 122 149.462 122.607 150.399C122.746 150.613 122.926 150.613 123.134 150.613C124.233 150.613 125.339 150.59 126.438 150.625C126.878 150.637 126.965 150.486 126.965 150.075C126.947 147.269 126.959 144.457 126.959 141.65C126.959 137.71 126.953 133.764 126.97 129.823C126.97 129.366 126.843 129.256 126.403 129.268C125.269 129.302 124.135 129.308 123.001 129.268C122.509 129.25 122.428 129.43 122.434 129.863C122.451 133.908 122.445 137.953 122.445 141.998V142.669C121.907 142.079 121.595 141.517 121.248 140.979C120.16 139.347 119.083 137.71 117.984 136.09C117.024 134.66 116.04 133.243 115.068 131.819C114.559 131.044 114.038 130.269 113.54 129.487C113.401 129.273 113.216 129.279 113.014 129.279C111.897 129.279 110.774 129.291 109.657 129.279C109.333 129.279 109.224 129.36 109.224 129.696C109.235 136.535 109.235 143.375 109.224 150.214C109.224 150.567 109.351 150.631 109.663 150.625L109.646 150.631Z" fill="#FCEE0A"/>
<path d="M132.554 150.637C133.723 150.619 134.892 150.608 136.061 150.637C136.535 150.648 136.692 150.544 136.686 150.035C136.663 146.685 136.674 143.328 136.674 139.978C136.674 136.576 136.674 133.173 136.68 129.765C136.68 129.395 136.593 129.268 136.2 129.273C134.979 129.297 133.758 129.297 132.537 129.273C132.195 129.273 132.074 129.349 132.074 129.719C132.086 136.541 132.086 143.369 132.074 150.191C132.074 150.573 132.219 150.631 132.548 150.625L132.554 150.637Z" fill="#FCEE0A"/>
<path d="M120.987 155.04C120.467 155.04 120.131 155.291 119.98 155.792C118.864 159.519 117.741 163.239 116.624 166.966C116.324 167.961 116.017 168.951 115.693 170.033C115.618 169.824 115.571 169.714 115.537 169.604C114.75 166.925 113.968 164.252 113.187 161.573C112.614 159.629 112.024 157.685 111.486 155.729C111.341 155.196 111.139 155 110.572 155.023C110.092 155.04 109.877 155.156 109.739 155.636C108.738 159.062 107.702 162.476 106.672 165.89C106.267 167.244 105.856 168.598 105.416 170.056C105.335 169.807 105.277 169.668 105.237 169.523C103.883 164.97 102.523 160.416 101.169 155.862C100.926 155.04 100.926 155.069 100.058 155.034C99.6009 155.017 99.5315 155.121 99.6645 155.555C101.233 160.665 102.783 165.774 104.346 170.883C104.641 171.861 104.647 171.838 105.706 171.867C106.105 171.879 106.255 171.74 106.365 171.375C107.308 168.146 108.269 164.923 109.224 161.694C109.64 160.288 110.057 158.888 110.473 157.482C110.514 157.482 110.554 157.482 110.595 157.482C110.647 157.638 110.705 157.789 110.751 157.945C112.042 162.29 113.326 166.63 114.617 170.976C114.877 171.85 114.877 171.809 115.785 171.867C116.318 171.902 116.503 171.699 116.648 171.219C118.221 166.005 119.824 160.803 121.416 155.596C121.531 155.221 121.39 155.034 120.993 155.034L120.987 155.04Z" fill="#FCEE0A"/>
<path d="M85.4187 146.691V146.679H85.4127C85.4127 146.679 85.4127 146.685 85.4127 146.691C85.4127 146.691 85.4187 146.691 85.4247 146.691H85.4187Z" fill="#FCEE0A"/>
<path d="M92.3909 141.216C92.5529 141.13 92.6571 141.02 92.7092 140.846C93.12 139.475 93.5308 138.103 93.9474 136.732C94.3004 136.043 94.2888 135.216 94.7112 134.458C94.7922 134.713 94.8501 134.869 94.9022 135.031C95.313 136.356 95.7296 137.681 96.1231 139.006C96.2157 139.324 96.3199 139.452 96.6844 139.319C97.7838 138.919 98.9179 138.636 100.069 138.422C100.839 138.277 101.221 137.646 100.961 136.9C99.9479 133.955 98.9179 131.021 97.8995 128.076C97.8185 127.844 97.7259 127.752 97.4598 127.815C96.2273 128.105 94.9832 128.377 93.7449 128.648C92.9175 128.822 92.09 129.007 91.2626 129.158C90.9501 129.216 90.8112 129.36 90.7186 129.655C89.0637 134.915 87.3915 140.169 85.7424 145.423C85.6151 145.828 85.3894 146.222 85.4241 146.673C85.4878 146.633 85.563 146.598 85.6151 146.546C87.5882 144.405 89.8391 142.617 92.3967 141.211L92.3909 141.216Z" fill="#FCEE0A"/>
<path d="M151.557 161.92C152.899 158.726 150.961 155.422 147.518 155.115C145.342 154.919 143.149 155.092 140.968 155.029C140.516 155.017 140.412 155.138 140.418 155.578C140.435 160.74 140.43 165.901 140.43 171.068C140.43 171.878 140.43 171.855 141.263 171.884C141.668 171.896 141.772 171.78 141.766 171.375C141.743 169.361 141.766 167.348 141.749 165.334C141.749 164.946 141.853 164.854 142.229 164.865C143.514 164.888 144.804 164.888 146.094 164.865C146.447 164.86 146.627 164.975 146.8 165.282C147.952 167.353 149.121 169.408 150.29 171.468C150.382 171.63 150.417 171.873 150.683 171.878C151.094 171.878 151.51 171.878 152.014 171.878C150.631 169.425 149.3 167.058 147.94 164.634C149.63 164.298 150.903 163.506 151.568 161.926L151.557 161.92ZM146.76 163.633C145.221 163.656 143.676 163.633 142.137 163.65C141.812 163.65 141.737 163.552 141.743 163.245C141.76 162.146 141.749 161.046 141.749 159.947C141.749 158.848 141.749 157.748 141.749 156.649C141.749 156.44 141.72 156.244 142.044 156.255C143.838 156.307 145.637 156.145 147.425 156.348C148.97 156.521 150.087 157.482 150.463 158.876C150.874 160.392 150.411 161.937 149.277 162.811C148.536 163.378 147.674 163.615 146.76 163.633Z" fill="#FCEE0A"/>
<path d="M162.007 155.104C160.179 154.971 158.35 155.086 156.522 155.034C156.105 155.023 155.983 155.127 155.983 155.555C156.007 158.176 155.995 160.803 155.995 163.425C155.995 166.046 155.995 168.736 155.995 171.398C155.995 171.618 155.908 171.878 156.313 171.867C158.275 171.821 160.248 171.977 162.204 171.786C164.628 171.549 166.665 170.559 168.031 168.459C169.275 166.549 169.518 164.42 169.304 162.221C168.904 158.124 166.11 155.416 162.007 155.115V155.104ZM167.678 166.057C166.931 168.615 164.871 170.293 162.129 170.565C160.624 170.715 159.114 170.6 157.609 170.64C157.227 170.652 157.326 170.397 157.32 170.2C157.32 167.949 157.32 165.699 157.32 163.448C157.32 161.197 157.326 158.946 157.314 156.695C157.314 156.336 157.413 156.238 157.766 156.249C159.27 156.296 160.786 156.163 162.285 156.365C165.647 156.817 167.77 159.137 168.002 162.591C168.083 163.766 168.013 164.923 167.683 166.063L167.678 166.057Z" fill="#FCEE0A"/>
<path d="M159.993 138.867C160.294 138.115 160.589 137.368 160.89 136.616C160.931 136.616 160.971 136.616 161.012 136.616C161.012 141.164 161.006 145.718 160.994 150.266C160.994 150.573 161.116 150.631 161.388 150.631C162.522 150.619 163.656 150.608 164.79 150.637C165.247 150.648 165.38 150.538 165.38 150.058C165.363 143.34 165.369 136.628 165.369 129.91C165.369 129.742 165.357 129.574 165.351 129.406C165.363 129.349 165.351 129.302 165.276 129.314C163.448 129.268 161.613 129.273 159.785 129.314C159.351 129.198 159.368 129.58 159.287 129.794C157.505 134.637 155.74 139.48 153.964 144.318C153.9 144.491 153.9 144.729 153.651 144.827C153.559 144.561 153.466 144.301 153.374 144.04C153.403 143.878 153.316 143.745 153.258 143.606C151.632 139.295 150.006 134.984 148.374 130.679C147.996 129.684 147.256 129.229 146.152 129.314C144.816 129.308 143.479 129.308 142.142 129.285C141.812 129.285 141.801 129.453 141.801 129.702C141.801 136.535 141.801 143.369 141.801 150.208C141.801 150.544 141.899 150.642 142.235 150.642C143.369 150.625 144.503 150.613 145.637 150.642C146.118 150.66 146.222 150.504 146.222 150.046C146.204 145.799 146.21 141.552 146.222 137.305C146.222 137.108 146.089 136.859 146.366 136.72C146.424 136.894 146.476 137.073 146.54 137.247C148.125 141.338 149.717 145.435 151.302 149.526C151.611 150.316 152.201 150.675 153.073 150.602C153.732 150.613 154.392 150.602 155.052 150.637C155.376 150.654 155.52 150.532 155.636 150.232C156.504 147.958 157.395 145.689 158.269 143.415C158.853 141.899 159.426 140.383 160.005 138.867H159.993Z" fill="#FCEE0A"/>
<path d="M182.415 163.54C181.438 163.129 180.413 162.927 179.378 162.742C178.232 162.539 177.069 162.383 176.01 161.833C175.269 161.451 174.795 160.867 174.644 160.045C174.384 158.633 175.026 157.274 176.328 156.66C177.943 155.902 179.609 155.873 181.247 156.602C182.253 157.048 182.925 157.835 183.278 158.888C183.561 159.744 183.561 159.733 184.464 159.71C184.73 159.704 184.828 159.646 184.782 159.362C184.614 158.315 184.232 157.378 183.486 156.602C181.455 154.496 177.04 154.299 174.772 156.209C172.324 158.275 172.926 162.059 175.888 163.239C176.646 163.54 177.439 163.72 178.243 163.864C179.493 164.096 180.755 164.252 181.929 164.784C182.861 165.207 183.544 165.849 183.671 166.919C183.85 168.401 183.208 169.581 181.866 170.247C180.749 170.802 179.557 170.883 178.342 170.756C176.317 170.542 174.853 169.321 174.39 167.481C174.255 166.941 173.906 166.673 173.342 166.676C173.29 166.676 173.238 166.676 173.192 166.676C172.926 166.642 172.879 166.781 172.908 167.012C173.047 168.146 173.412 169.188 174.181 170.05C175.501 171.525 177.237 171.971 178.909 172C180.546 171.994 181.9 171.745 183.087 170.924C184.562 169.905 185.158 168.464 184.985 166.705C184.828 165.091 183.827 164.136 182.404 163.54H182.415Z" fill="#FCEE0A"/>
<path d="M92.4662 155.919C92.1248 155.04 92.1248 155.075 91.2047 155.028C90.736 155.005 90.5393 155.156 90.3715 155.595C88.7282 159.889 87.0617 164.177 85.3952 168.464C84.9612 169.581 84.5331 170.698 84.0759 171.873C84.3942 171.873 84.643 171.849 84.8918 171.873C85.3084 171.925 85.5109 171.768 85.6614 171.363C86.1937 169.923 86.7839 168.499 87.3336 167.064C87.432 166.809 87.5477 166.7 87.8429 166.705C90.1632 166.717 92.4893 166.717 94.8097 166.705C95.0932 166.705 95.2205 166.798 95.3246 167.064C95.7933 168.297 96.2852 169.517 96.7712 170.744C97.0798 171.527 97.6893 171.894 98.5997 171.844C98.5361 171.653 98.484 171.491 98.4261 171.334C96.4414 166.19 94.4509 161.052 92.4662 155.908V155.919ZM87.8891 165.473C88.219 164.616 88.5314 163.806 88.8439 162.99C89.6019 161.023 90.3599 159.05 91.1237 157.088C91.17 156.973 91.1469 156.776 91.3031 156.764C91.5056 156.753 91.4883 156.973 91.5403 157.1C92.5935 159.82 93.6466 162.545 94.6997 165.27C94.7229 165.328 94.7344 165.392 94.7576 165.479H87.8834L87.8891 165.473Z" fill="#FCEE0A"/>
<path d="M130.876 155.954C130.523 155.04 130.523 155.063 129.534 155.029C129.1 155.011 128.926 155.173 128.776 155.561C126.768 160.786 124.748 166 122.729 171.219C122.474 171.879 122.474 171.85 123.203 171.89C123.678 171.919 123.909 171.769 124.077 171.306C124.592 169.894 125.171 168.505 125.709 167.099C125.813 166.821 125.946 166.711 126.259 166.711C128.562 166.729 130.87 166.723 133.173 166.711C133.474 166.711 133.613 166.804 133.723 167.087C134.25 168.476 134.822 169.853 135.337 171.248C135.511 171.722 135.713 172.029 136.188 171.873C136.743 171.873 136.932 171.643 136.755 171.184C134.793 166.109 132.838 161.029 130.876 155.954ZM126.554 165.496C126.368 165.496 126.264 165.479 126.357 165.242C127.468 162.377 128.573 159.513 129.719 156.539C130.888 159.571 132.022 162.505 133.173 165.49C130.917 165.49 128.735 165.49 126.554 165.49V165.496Z" fill="#FCEE0A"/>
<path d="M100.127 150.637C100.909 150.619 101.684 150.631 102.465 150.631C103.264 150.631 104.056 150.619 104.855 150.631C105.179 150.637 105.318 150.596 105.196 150.208C104.369 147.633 103.559 145.053 102.737 142.478C102.506 141.749 102.037 141.43 101.285 141.488C99.9827 141.598 98.7097 141.859 97.4309 142.107C97.13 142.165 97.1532 142.31 97.2226 142.541C98.0154 145.105 98.8081 147.674 99.5892 150.243C99.6818 150.538 99.8265 150.637 100.133 150.625L100.127 150.637Z" fill="#FCEE0A"/>
<path d="M184.898 146.679C182.323 146.69 179.742 146.696 177.167 146.702C176.623 146.696 176.085 146.667 175.547 146.69C175.206 146.702 175.119 146.586 175.125 146.256C175.142 145.105 175.13 143.959 175.13 142.808C175.13 142.167 175.437 141.807 176.05 141.726C178.278 141.812 180.512 141.743 182.739 141.76C182.977 141.76 183.063 141.673 183.058 141.43C183.046 140.4 183.052 139.37 183.058 138.341C183.058 138.115 183 137.999 182.745 138.005C180.512 138.022 178.284 138.028 176.05 138.034C175.848 138.022 175.651 137.993 175.449 137.999C175.211 138.005 175.125 137.912 175.125 137.675C175.13 136.309 175.136 134.944 175.125 133.573C175.125 133.283 175.263 133.248 175.495 133.248C175.981 133.248 176.473 133.231 176.959 133.225C179.499 133.237 182.034 133.243 184.574 133.254C184.828 133.254 184.886 133.15 184.886 132.919C184.88 131.819 184.88 130.72 184.886 129.62C184.886 129.389 184.828 129.285 184.574 129.285C182.034 129.302 179.499 129.308 176.959 129.314C175.009 129.308 173.065 129.314 171.115 129.279C170.663 129.273 170.524 129.372 170.524 129.852C170.542 136.587 170.536 143.323 170.536 150.064C170.536 150.15 170.542 150.231 170.536 150.318C170.507 150.567 170.629 150.637 170.86 150.631C172.96 150.613 175.061 150.608 177.161 150.602C179.736 150.613 182.311 150.619 184.892 150.631C185.147 150.631 185.204 150.532 185.204 150.301C185.193 149.202 185.193 148.102 185.204 146.997C185.204 146.76 185.141 146.673 184.892 146.673L184.898 146.679Z" fill="#FCEE0A"/>
<path d="M84.4984 150.637C86.107 150.619 87.7214 150.619 89.33 150.637C89.6309 150.637 89.7351 150.521 89.8103 150.255C90.0649 149.358 90.3484 148.472 90.6204 147.587C90.9907 146.395 91.361 145.203 91.7719 143.872C89.1275 144.978 86.8361 146.355 84.9034 148.287C84.7935 148.397 84.7414 148.542 84.6951 148.687C84.5331 149.202 84.3769 149.722 84.2033 150.232C84.0991 150.532 84.1339 150.642 84.4926 150.642L84.4984 150.637Z" fill="#FCEE0A"/>
<path d="M118.568 124.748C118.568 124.876 118.499 125.09 118.632 125.119C118.892 125.171 119.176 125.177 119.436 125.125C119.662 125.078 119.546 124.835 119.546 124.691C119.558 123.962 119.546 123.232 119.546 122.503C119.72 122.584 119.789 122.671 119.853 122.77C120.328 123.47 120.825 124.158 121.259 124.882C121.514 125.304 121.884 125.165 122.202 125.136C122.538 125.107 122.359 124.777 122.359 124.598C122.376 123.36 122.353 122.127 122.376 120.889C122.387 120.449 122.116 120.548 121.878 120.553C121.647 120.553 121.363 120.443 121.381 120.889C121.41 121.659 121.386 122.434 121.386 123.204C121.352 123.215 121.317 123.221 121.276 123.232C121.19 123.111 121.097 122.995 121.01 122.868C120.547 122.179 120.067 121.502 119.627 120.802C119.367 120.391 118.985 120.542 118.673 120.576C118.418 120.605 118.557 120.918 118.551 121.097C118.54 122.318 118.54 123.533 118.551 124.754L118.568 124.748Z" fill="#FCEE0A"/>
<path d="M156.012 125.165C156.487 125.194 156.649 125.038 156.579 124.581C156.55 124.401 156.556 124.204 156.579 124.025C156.597 123.886 156.458 123.626 156.736 123.632C156.979 123.637 157.285 123.452 157.459 123.794C157.54 123.961 157.632 124.123 157.713 124.291C158.014 124.897 158.524 125.175 159.241 125.124C158.981 124.609 158.749 124.141 158.506 123.678C158.425 123.522 158.356 123.4 158.552 123.25C159.166 122.781 159.258 122.144 159.01 121.473C158.749 120.785 158.147 120.559 157.459 120.547C156.967 120.542 156.475 120.565 155.983 120.542C155.648 120.524 155.555 120.628 155.561 120.964C155.578 122.214 155.584 123.47 155.561 124.725C155.555 125.084 155.671 125.153 156.012 125.171V125.165ZM157.089 121.363C157.789 121.427 158.101 121.595 158.101 122.081C158.101 122.567 157.783 122.735 157.077 122.793C156.377 122.845 156.614 122.37 156.579 122.04C156.556 121.67 156.464 121.305 157.089 121.363Z" fill="#FCEE0A"/>
<path d="M166.561 125.194C167.886 125.206 168.835 124.233 168.846 122.868C168.858 121.491 167.938 120.524 166.601 120.501C165.27 120.484 164.304 121.439 164.287 122.798C164.269 124.193 165.207 125.182 166.561 125.188V125.194ZM166.578 121.369C167.313 121.369 167.828 121.988 167.822 122.856C167.822 123.944 166.948 124.633 166.075 124.222C165.502 123.95 165.328 123.435 165.328 122.839C165.328 121.948 165.832 121.363 166.578 121.369Z" fill="#FCEE0A"/>
<path d="M100.903 125.165C101.371 125.194 101.499 125.026 101.441 124.598C101.412 124.367 101.447 124.123 101.429 123.886C101.412 123.655 101.522 123.637 101.724 123.597C102.32 123.475 102.465 123.933 102.581 124.303C102.824 125.049 103.293 125.292 104.103 125.101C103.97 124.835 103.86 124.615 103.75 124.39C103.628 124.147 103.524 123.898 103.379 123.666C103.264 123.475 103.281 123.36 103.455 123.203C103.998 122.706 104.155 122.087 103.894 121.468C103.628 120.831 103.102 120.565 102.442 120.542C101.898 120.524 101.36 120.553 100.816 120.53C100.498 120.513 100.411 120.617 100.417 120.929C100.434 122.179 100.44 123.435 100.417 124.685C100.405 125.084 100.538 125.136 100.897 125.153L100.903 125.165ZM101.944 121.363C102.644 121.427 102.969 121.589 102.974 122.064C102.986 122.561 102.656 122.741 101.921 122.798C101.215 122.85 101.476 122.37 101.441 122.173C101.406 121.676 101.308 121.306 101.939 121.363H101.944Z" fill="#FCEE0A"/>
<path d="M140.996 124.83C140.967 124.17 140.991 123.51 140.991 122.851C140.991 122.243 140.962 121.63 141.002 121.028C141.031 120.617 140.881 120.53 140.499 120.53C140.128 120.53 139.966 120.594 139.978 121.022C139.995 121.462 140.209 122.075 139.874 122.312C139.567 122.532 138.994 122.376 138.543 122.382C138.526 122.382 138.508 122.382 138.491 122.382C138.265 122.411 138.196 122.301 138.202 122.087C138.213 121.699 138.173 121.306 138.213 120.924C138.259 120.461 137.959 120.542 137.704 120.548C137.449 120.548 137.172 120.455 137.183 120.918C137.218 122.185 137.212 123.452 137.183 124.72C137.177 125.09 137.299 125.148 137.635 125.165C138.097 125.188 138.265 125.055 138.207 124.587C138.167 124.268 138.207 123.944 138.196 123.626C138.184 123.377 138.242 123.25 138.526 123.267C138.896 123.29 139.272 123.285 139.642 123.267C139.903 123.256 140.007 123.337 139.995 123.609C139.978 124.014 140.013 124.425 139.984 124.824C139.949 125.275 140.267 125.148 140.487 125.148C140.701 125.148 141.02 125.298 140.996 124.835V124.83Z" fill="#FCEE0A"/>
<path d="M111.226 125.188C112.331 125.171 113.002 124.581 113.077 123.51C113.112 123.053 113.077 122.596 113.077 122.139C113.077 122.139 113.083 122.139 113.089 122.139C113.089 121.751 113.054 121.358 113.1 120.97C113.153 120.519 112.904 120.53 112.591 120.536C112.29 120.542 112.042 120.495 112.065 120.958C112.105 121.768 112.094 122.584 112.065 123.394C112.042 124.123 111.492 124.494 110.855 124.257C110.416 124.089 110.323 123.718 110.317 123.308C110.311 122.48 110.306 121.647 110.317 120.819C110.317 120.391 110.005 120.542 109.814 120.547C109.623 120.547 109.299 120.374 109.305 120.808C109.316 121.722 109.27 122.642 109.334 123.551C109.403 124.621 110.12 125.2 111.22 125.182L111.226 125.188Z" fill="#FCEE0A"/>
<path d="M130.749 125.032C131.328 124.824 131.698 124.401 131.866 123.805C131.895 123.707 131.97 123.58 131.808 123.504C131.542 123.377 130.946 123.568 130.778 123.834C130.373 124.476 129.47 124.505 129.013 123.898C128.614 123.366 128.62 122.312 129.019 121.792C129.453 121.219 130.39 121.184 130.703 121.797C130.923 122.226 131.206 122.185 131.553 122.214C131.929 122.243 131.941 122.081 131.843 121.797C131.611 121.132 131.154 120.721 130.477 120.571C128.897 120.224 127.688 121.213 127.688 122.851C127.688 125.049 129.493 125.483 130.749 125.038V125.032Z" fill="#FCEE0A"/>
<path d="M94.127 124.974C94.6477 124.725 94.9834 124.326 95.1164 123.765C95.1396 123.672 95.2032 123.58 95.0702 123.51C94.8271 123.377 94.1848 123.562 94.0344 123.811C93.6178 124.5 92.6399 124.523 92.2233 123.834C91.8414 123.192 91.8356 122.503 92.2233 121.861C92.6457 121.167 93.6409 121.178 94.017 121.89C94.1675 122.174 94.3353 122.243 94.5667 122.202C95.2495 122.202 95.2669 122.179 95.0123 121.606C94.7519 121.022 94.2948 120.681 93.6756 120.553C91.9687 120.218 90.6899 121.485 90.956 123.238C91.1991 124.841 92.6862 125.657 94.127 124.974Z" fill="#FCEE0A"/>
<path d="M103.287 136.014C103.264 135.528 103.061 135.089 102.951 134.626C103.055 135.089 103.032 135.569 103.2 136.02C103.212 136.529 103.235 137.033 103.235 137.542C103.235 138.352 102.847 138.925 102.112 139.261C101.678 139.457 101.227 139.59 100.77 139.718C100.585 139.77 100.359 139.729 100.214 139.932C103.31 140.019 103.837 140.447 104.635 143.589C104.583 143.109 104.542 142.738 104.508 142.368C104.473 141.98 104.427 141.593 104.421 141.205C104.415 140.03 104.768 139.515 105.868 139.093C106.197 138.966 106.539 138.861 106.874 138.746C107.1 138.746 107.297 138.682 107.459 138.497C107.262 138.532 107.065 138.566 106.874 138.601C106.539 138.618 106.197 138.653 105.862 138.653C104.6 138.659 104.039 138.26 103.628 137.073C103.507 136.72 103.397 136.367 103.287 136.014Z" fill="#FCEE0A"/>
<path d="M147.772 124.928C147.755 125.009 147.761 125.13 147.859 125.136C148.131 125.153 148.415 125.194 148.669 125.124C148.895 125.067 148.791 124.795 148.773 124.638C148.669 123.788 148.924 123.059 149.398 122.359C149.774 121.803 150.087 121.201 150.428 120.611C149.433 120.426 149.404 120.443 148.953 121.224C148.739 121.595 148.519 121.965 148.264 122.387C147.952 121.82 147.686 121.334 147.419 120.848C147.338 120.704 147.286 120.536 147.061 120.547C146.76 120.559 146.459 120.547 146.089 120.547C146.245 120.831 146.366 121.045 146.488 121.259C147.136 122.405 148.062 123.452 147.767 124.928H147.772Z" fill="#FCEE0A"/>
<path d="M174.158 122.839C174.158 123.499 174.17 124.158 174.158 124.818C174.152 125.084 174.239 125.165 174.505 125.159C175.217 125.142 175.929 125.13 176.635 125.159C177.005 125.177 176.994 124.991 176.994 124.731C176.994 124.453 176.994 124.233 176.606 124.28C176.27 124.314 175.929 124.268 175.593 124.291C175.269 124.314 175.153 124.21 175.159 123.869C175.182 122.926 175.148 121.977 175.177 121.028C175.188 120.634 175.084 120.524 174.685 120.524C174.262 120.524 174.129 120.634 174.158 121.057C174.199 121.647 174.17 122.237 174.17 122.833L174.158 122.839Z" fill="#FCEE0A"/>
<path d="M182.213 122.862C182.213 123.504 182.23 124.152 182.207 124.795C182.195 125.09 182.3 125.165 182.577 125.159C183.254 125.142 183.931 125.136 184.614 125.159C184.932 125.171 185.054 125.096 185.048 124.748C185.042 124.413 184.984 124.245 184.608 124.286C184.29 124.32 183.96 124.268 183.642 124.297C183.306 124.326 183.202 124.21 183.214 123.875C183.237 122.874 183.202 121.878 183.231 120.877C183.243 120.426 182.942 120.559 182.722 120.553C182.491 120.553 182.195 120.438 182.219 120.883C182.248 121.543 182.224 122.202 182.224 122.862H182.213Z" fill="#FCEE0A"/>
<path d="M85.3722 146.754C85.3722 146.754 85.3953 146.713 85.4069 146.69C85.3606 146.685 85.3375 146.696 85.3722 146.754Z" fill="#FCEE0A"/>
</svg>
