<svg width="174" height="174" viewBox="0 0 174 174" fill="none" xmlns="http://www.w3.org/2000/svg">
<g clip-path="url(#clip0_1_7)">
<path opacity="0.5" d="M170.869 86.989L86.866 2.9855L2.86252 86.989L86.866 170.992L170.869 86.989Z" fill="black"/>
<g opacity="0.7">
<path d="M86.9 3.00001L170.9 87L86.9 171L2.9 87L86.9 3.00001ZM86.9 0.200012L85.5 1.60001L1.5 85.6L0.0999985 87L1.5 88.4L85.5 172.4L86.9 173.8L88.3 172.4L172.3 88.4L173.7 87L172.3 85.6L88.3 1.60001L86.9 0.200012Z" fill="#737373"/>
</g>
<path d="M103.984 57H113.488L92.6213 81.6124L117 115H97.8691L82.8907 94.7106L65.7431 115H56.2396L78.3456 88.6753L55 57H74.6062L88.1382 75.5343L103.984 57ZM100.658 109.221H105.926L71.8377 62.5646H66.1769L100.658 109.221Z" fill="#C2C2C2"/>
</g>
<defs>
<clipPath id="clip0_1_7">
<rect width="173.8" height="173.8" fill="white"/>
</clipPath>
</defs>
</svg>
