<svg width="174" height="174" viewBox="0 0 174 174" fill="none" xmlns="http://www.w3.org/2000/svg">
<g clip-path="url(#clip0_1_12)">
<path opacity="0.5" d="M170.869 86.989L86.866 2.9855L2.86252 86.989L86.866 170.992L170.869 86.989Z" fill="black"/>
<g opacity="0.7">
<path d="M86.9 3L170.9 87L86.9 171L2.90001 87L86.9 3ZM86.9 0.199997L85.5 1.6L1.50001 85.6L0.100006 87L1.50001 88.4L85.5 172.4L86.9 173.8L88.3 172.4L172.3 88.4L173.7 87L172.3 85.6L88.3 1.6L86.9 0.199997Z" fill="#737373"/>
</g>
<path fill-rule="evenodd" clip-rule="evenodd" d="M114.348 64.4337C117.361 65.2239 119.73 67.5437 120.536 70.4958C121.994 75.8409 122 87 122 87C122 87 122 98.1591 120.536 103.504C119.73 106.456 117.361 108.776 114.348 109.566C108.891 111 86.9999 111 86.9999 111C86.9999 111 65.1092 111 59.6523 109.566C56.6386 108.776 54.2703 106.456 53.4636 103.504C52 98.1591 52 87 52 87C52 87 52 75.8409 53.4636 70.4958C54.2703 67.5437 56.6386 65.2239 59.6523 64.4337C65.1092 63 86.9999 63 86.9999 63C86.9999 63 108.891 63 114.348 64.4337ZM97.5142 88.3344L78.53 99.1897V77.4789L97.5142 88.3344Z" fill="#C2C2C2"/>
</g>
<defs>
<clipPath id="clip0_1_12">
<rect width="173.8" height="173.8" fill="white"/>
</clipPath>
</defs>
</svg>
