<svg width="82" height="72" viewBox="0 0 82 72" fill="none" xmlns="http://www.w3.org/2000/svg">
<g clip-path="url(#clip0_2254_84797)">
<path d="M40.557 63.4C47.9958 63.4 55.4346 63.4063 62.8735 63.3937C64.0817 63.3916 65.3152 63.4399 66.4962 63.2382C68.2803 62.9293 69.333 60.9141 68.6669 59.2372C68.3475 58.4387 67.8915 57.6927 67.4607 56.9446C59.9442 43.9183 52.4234 30.8962 44.8984 17.874C44.4677 17.126 44.0453 16.3653 43.522 15.6844C42.1961 13.955 39.9981 13.8478 38.6406 15.4512C38.0879 16.1047 37.6424 16.857 37.2096 17.603C29.59 30.7701 21.9768 43.9372 14.3678 57.1106C14.0232 57.7074 13.6807 58.3168 13.418 58.9556C12.506 61.1852 13.6996 63.1163 16.1603 63.3538C17.192 63.4546 18.2364 63.3979 19.2724 63.3979C26.3666 63.4 33.4607 63.4 40.5549 63.4M68.7636 71.9651C66.8618 71.9651 64.9559 71.9126 63.0584 71.9798C60.8667 72.0576 58.8494 72.0744 58.8409 69.0001C58.8388 68.3046 58.0971 67.9305 57.3259 67.9368C56.9812 67.9389 56.6366 67.9116 56.2899 67.9116C46.2643 67.9095 36.2345 67.8969 26.209 67.9137C24.0109 67.92 23.9332 67.9452 23.3196 70.3597C23.0674 71.362 22.6072 71.921 21.6448 71.9273C15.9396 71.9525 10.2323 72.0597 4.53344 71.8853C1.09351 71.7802 -0.558154 68.9287 0.603897 65.6379C0.776209 65.1546 1.04939 64.7049 1.30785 64.2573C3.87781 59.7583 6.43937 55.253 9.04505 50.7771C9.44431 50.09 9.87509 49.0855 10.9489 49.5478C12.4724 50.2034 13.1742 49.3482 13.8277 48.2408C18.5663 40.2073 23.2797 32.157 28.0644 24.1508C28.9176 22.7219 29.0206 21.6271 27.5286 20.6667C26.9192 20.2759 27.2071 19.719 27.3815 19.2967C27.7093 18.5023 28.1401 17.748 28.5688 17.0041C30.9853 12.814 33.4124 8.62806 35.8374 4.44426C36.182 3.84747 36.4951 3.22337 36.8902 2.6623C39.4097 -0.916312 42.8391 -0.922615 45.1674 2.87034C48.33 8.01867 51.2613 13.3141 54.26 18.5633C54.6887 19.3135 54.9681 20.2065 54.012 20.8243C52.747 21.6418 52.6566 22.5286 53.4278 23.8209C58.303 31.9721 63.134 40.1526 67.9398 48.3479C68.6627 49.5814 69.4633 50.1089 70.8544 49.4512C71.6277 49.0876 72.132 49.5541 72.5019 50.195C75.3576 55.1269 78.2953 60.0147 81.0418 65.0054C83.0864 68.7269 80.4807 72.045 77.066 71.9357C76.7214 71.9252 76.3768 71.9609 76.0301 71.9609C73.6093 71.963 71.1885 71.963 68.7699 71.963" fill="black"/>
<path d="M43.607 37.0803C43.607 40.6946 43.6343 44.311 43.5965 47.9254C43.5734 49.9931 43.1552 50.3987 41.285 50.4575C38.8117 50.5374 38.2738 50.0793 38.2612 47.545C38.2275 40.3143 38.2212 33.0835 38.2675 25.8527C38.2843 23.3563 38.8538 22.9234 41.4111 23.0348C43.0544 23.1062 43.5629 23.5265 43.5839 25.1992C43.6364 29.1581 43.6007 33.1192 43.6007 37.0782H43.6091L43.607 37.0803Z" fill="black"/>
<path d="M43.4852 57.0326C43.5104 59.2789 43.2204 59.6467 41.4048 59.7118C38.9588 59.798 38.4293 59.3861 38.3936 57.3814C38.3516 54.9501 38.7382 54.4689 40.8038 54.4059C43.0775 54.3365 43.4642 54.7169 43.4873 57.0347" fill="black"/>
</g>
<defs>
<clipPath id="clip0_2254_84797">
<rect width="81.5285" height="72" fill="white" transform="translate(0.234375)"/>
</clipPath>
</defs>
</svg>
