<svg width="33" height="30" viewBox="0 0 33 30" fill="none" xmlns="http://www.w3.org/2000/svg">
<path fill-rule="evenodd" clip-rule="evenodd" d="M30.0177 0H2.03894C0.906195 0 0 0.892193 0 2.00743V27.9926C0 29.1078 0.906195 30 2.03894 30H30.0177C31.1504 30 32.0566 29.1078 32.0566 27.9926V2.00743C32 0.892193 31.0938 0 30.0177 0ZM9.51504 19.2379H5.77699C5.4938 19.2379 5.26726 19.461 5.26726 19.7398V22.3606C5.26726 22.6394 5.4938 22.8625 5.77699 22.8625H9.57168V24.5911H4.8708C4.13451 24.5911 3.5115 23.9777 3.5115 23.2528V18.7918C3.5115 18.0669 4.13451 17.4535 4.8708 17.4535H9.51504V19.2379ZM10.8743 14.3866C10.8743 15.1673 10.2513 15.7807 9.45841 15.7807H3.5115V13.9963H8.55221C8.8354 13.9963 9.06195 13.7732 9.06195 13.4944V7.63941C9.06195 7.36059 8.8354 7.13755 8.55221 7.13755H5.83363C5.55044 7.13755 5.32389 7.36059 5.32389 7.63941V10.316C5.32389 10.5948 5.55044 10.8178 5.83363 10.8178H7.98584V12.6022H4.92743C4.13451 12.6022 3.5115 11.9888 3.5115 11.2082V6.69145C3.5115 5.91078 4.13451 5.2974 4.92743 5.2974H9.51504C10.308 5.2974 10.931 5.91078 10.931 6.69145V14.3866H10.8743ZM18.2372 23.3085C18.2372 24.0335 17.6142 24.6468 16.8779 24.6468H12.3469C11.6106 24.6468 10.9876 24.0335 10.9876 23.3085V18.8476C10.9876 18.1227 11.6106 17.5093 12.3469 17.5093H16.8779C17.6142 17.5093 18.2372 18.1227 18.2372 18.8476V23.3085ZM18.2938 12.6022H13.7062C12.9133 12.6022 12.2903 11.9888 12.2903 11.2082V6.69145C12.2903 5.91078 12.9133 5.2974 13.7062 5.2974H18.2938C19.0867 5.2974 19.7097 5.91078 19.7097 6.69145V11.2082C19.7097 11.9888 19.0867 12.6022 18.2938 12.6022ZM26.7327 24.6468V19.2379H25.4867C25.2035 19.2379 24.977 19.461 24.977 19.7398V24.6468H23.2212V19.2379H21.9752C21.692 19.2379 21.4655 19.461 21.4655 19.7398V24.6468H19.7097V18.8476C19.7097 18.1227 20.3327 17.5093 21.069 17.5093H28.5451V24.6468H26.7327ZM28.4885 14.3866C28.4885 15.1673 27.8655 15.7807 27.0726 15.7807H21.1257V13.9963H26.1664C26.4496 13.9963 26.6761 13.7732 26.6761 13.4944V7.63941C26.6761 7.36059 26.4496 7.13755 26.1664 7.13755H23.4478C23.1646 7.13755 22.9381 7.36059 22.9381 7.63941V10.316C22.9381 10.5948 23.1646 10.8178 23.4478 10.8178H25.6V12.6022H22.485C21.692 12.6022 21.069 11.9888 21.069 11.2082V6.69145C21.069 5.91078 21.692 5.2974 22.485 5.2974H27.0726C27.8655 5.2974 28.4885 5.91078 28.4885 6.69145V14.3866Z" fill="#000000"/>
<path fill-rule="evenodd" clip-rule="evenodd" d="M17.3876 7.08179C17.6708 7.08179 17.8974 7.30484 17.8974 7.58365V10.2602C17.8974 10.539 17.6708 10.7621 17.3876 10.7621H14.669C14.3859 10.7621 14.1593 10.539 14.1593 10.2602V7.58365C14.1593 7.30484 14.3859 7.08179 14.669 7.08179H17.3876Z" fill="#000000"/>
<path fill-rule="evenodd" clip-rule="evenodd" d="M15.915 19.2379C16.1982 19.2379 16.4248 19.461 16.4248 19.7398V22.3606C16.4248 22.6394 16.1982 22.8624 15.915 22.8624H13.2531C12.9699 22.8624 12.7433 22.6394 12.7433 22.3606V19.7398C12.7433 19.461 12.9699 19.2379 13.2531 19.2379H15.915Z" fill="#000000"/>
</svg>
