<svg width="37" height="40" viewBox="0 0 37 40" fill="none" xmlns="http://www.w3.org/2000/svg">
<path d="M16.9153 12.1257V8.27848C16.9153 7.66729 16.6122 7.37939 15.996 7.37939H14.9837V13.0232H15.996C16.6122 13.0248 16.9153 12.7369 16.9153 12.1257Z" fill="white"/>
<path d="M14.195 27.0982L14.1679 27.0354L14.1425 26.9727L14.1154 26.91L14.0901 26.8473L14.063 26.7861L14.0376 26.7234L14.0105 26.6607L13.9851 26.598L13.958 26.5352L13.9309 26.4741L13.9055 26.4114L13.8785 26.3487L13.8531 26.2859L13.826 26.2232L13.8006 26.1605L13.7735 26.0994L13.7481 26.0366L13.721 25.9739L13.6956 25.9112L13.6685 25.8485L13.6431 25.7857L13.6161 25.7246L13.5907 25.7857L13.5636 25.8485L13.5382 25.9112L13.5111 25.9739L13.4857 26.0366L13.4586 26.0994L13.4315 26.1605L13.4062 26.2232L13.3791 26.2859L13.3537 26.3487L13.3266 26.4114L13.3012 26.4741L13.2741 26.5352L13.2487 26.598L13.2216 26.6607L13.1962 26.7234L13.1692 26.7861L13.1438 26.8473L13.1167 26.91L13.0913 26.9727L13.0642 27.0354L13.0388 27.0982L13.0117 27.1609H14.1425L14.195 27.0982Z" fill="white"/>
<path d="M33.4626 0H3.78576C1.39381 0 0.5 0.849231 0.5 3.13476V30.7203C0.5 30.9825 0.513543 31.2205 0.538935 31.4441C0.591412 31.9443 0.604955 32.43 1.09079 32.9801C1.14327 33.0299 1.64265 33.3918 1.64265 33.3918C1.90504 33.5173 2.08956 33.6041 2.39257 33.7296L16.9948 39.5488C17.7566 39.8737 18.0731 40.0104 18.625 39.9991C19.1769 40.012 19.4917 39.8865 20.2552 39.5488L34.8574 33.7296C35.1604 33.617 35.3433 33.5173 35.6073 33.3918C35.6073 33.3918 36.1067 33.0428 36.1592 32.9801C36.645 32.43 36.6586 31.9443 36.7111 31.4441C36.7381 31.2189 36.75 30.9825 36.75 30.7203V3.13476C36.7483 0.849231 35.868 0 33.4626 0ZM20.4769 5.31895H22.9349V20.6405H20.4769V5.31895ZM19.4257 26.0865L19.4646 26.1364L19.5036 26.1991L19.5425 26.249L19.5814 26.1991L19.6204 26.1364L19.6593 26.0865L19.6982 26.0238L19.7372 25.9739L19.7761 25.9112L19.8151 25.8613L19.854 25.7986L19.8929 25.7488L19.92 25.6989L19.9589 25.6362L19.9979 25.5863L20.0368 25.5236L20.0757 25.4737L20.1147 25.411L20.1536 25.3611L20.1926 25.2984L20.2704 25.1987L20.3094 25.136L20.3483 25.0861L20.3872 25.0234L20.4262 24.9735L20.4651 24.9108L20.4922 24.8609L20.5311 24.8111L20.57 24.7483L20.609 24.6985L20.6479 24.6357L20.6869 24.5859L20.7258 24.5232L20.7647 24.4733L20.8037 24.4106L20.8426 24.3607H22.2087V28.9929L21.9057 29.0057H20.6835V26.2715L20.6445 26.3213L20.6056 26.3841L20.5277 26.4838L20.4888 26.5465L20.4109 26.6462L20.372 26.709L20.2552 26.8585L20.2163 26.9213L20.1384 27.021L20.0994 27.0837L20.0216 27.1834L19.9826 27.2462L19.9556 27.296L19.9166 27.3459L19.8777 27.4086L19.7998 27.5083L19.7609 27.5711L19.7219 27.6209L19.6949 27.6708L19.6559 27.7206L19.617 27.7834L19.5391 27.8831L19.512 27.9458L19.4342 28.0455L19.3952 28.1083L19.3563 28.1581H19.3292L19.2903 28.0954L19.2513 28.0455L19.2124 27.9828L19.1735 27.933L19.1345 27.8702L19.0956 27.8204L19.0567 27.7576L19.0177 27.7078L18.9788 27.6451L18.9517 27.5952L18.9128 27.5325L18.8738 27.4826L18.8349 27.4199L18.9009 27.3571L18.862 27.2944L18.8231 27.2446L18.7841 27.1818L18.7452 27.132L18.7063 27.0692L18.6673 27.0194L18.6402 26.9824L18.6013 26.9325L18.5624 26.8698L18.5234 26.8199L18.4845 26.7572L18.4456 26.7074L18.4066 26.6446L18.3795 26.6076L18.3406 26.5449L18.3017 26.495L18.2627 26.4323L18.2238 26.3825L18.1849 26.3197L18.1459 26.2699V28.9929H16.8848V24.3607H18.2509L18.2898 24.4106L18.3288 24.4733L18.3677 24.5232L18.4066 24.5859L18.4456 24.6357L18.4845 24.6985L18.5234 24.7483L18.5624 24.8111L18.6402 24.9108L18.6792 24.9735L18.7181 25.0234L18.757 25.0861L18.796 25.136L18.8349 25.1987L18.9128 25.2984L18.9517 25.3611L18.9907 25.411L19.0296 25.4737L19.0685 25.5236L19.1075 25.5863L19.1464 25.6362L19.1735 25.6989L19.2124 25.7488L19.2395 25.7986L19.2784 25.8613L19.3174 25.9112L19.3563 25.9739L19.3952 26.0238L19.4257 26.0865ZM12.5393 5.31895H16.3905C18.388 5.31895 19.3732 6.25504 19.3732 8.16581V12.2366C19.3732 14.1474 18.388 15.0835 16.3905 15.0835H14.9973V20.6405H12.5393V5.31895ZM5.8493 5.31895H11.3171V7.44203H8.30728V11.775H11.1986V13.8981H8.30728V18.519H11.356V20.6421H5.8493V5.31895ZM10.4876 28.3833L10.4487 28.409L10.0813 28.668L9.88329 28.779L9.81727 28.8047L9.75125 28.8417L9.15707 29.0733L8.82697 29.1376L8.74741 29.1505L8.68139 29.1634L8.60183 29.1762L8.53581 29.1891L8.45624 29.202H8.24633L8.18031 29.1891L8.10075 29.1762L7.50657 29.0604L7.04443 28.8803L6.97841 28.8433L6.92594 28.8176L6.85992 28.7806L6.49258 28.5216L6.4401 28.4718L6.38762 28.4348L6.28267 28.335L6.04906 28.0359L6.02197 27.986L5.98304 27.9233L5.9441 27.8734L5.83576 27.6225L5.80868 27.5727L5.78159 27.5099L5.76805 27.4472L5.74096 27.3845L5.72742 27.3218L5.70034 27.259L5.68679 27.1963V27.1336L5.67325 27.0709V27.0081L5.65971 26.9454V26.4082L5.67325 26.3326L5.71388 26.1444L5.74096 26.0817L5.75451 26.019L5.97119 25.5171L6.01012 25.4544L6.04906 25.4046L6.07614 25.3547L6.30975 25.0555L6.36223 25.0057L6.40116 24.9558L6.50612 24.8561L6.5586 24.8191L6.61107 24.7692L6.92594 24.5473L7.124 24.4363L7.25604 24.3848L7.32206 24.3478L7.37453 24.3221L7.50657 24.2706L7.57259 24.2578L7.63861 24.232L7.70463 24.2192L7.77065 24.1934L8.23279 24.1034H8.50872L8.66785 24.1291H8.73387L8.79989 24.142L8.87945 24.1548L9.27557 24.232L9.34159 24.2578L9.40761 24.2706L9.46009 24.2964L9.5261 24.3221L9.6446 24.372L9.71062 24.3977L9.77664 24.4347L9.84266 24.4604L9.89514 24.4974L9.96116 24.5344L10.0136 24.5714L10.0797 24.6084L10.2896 24.7564L10.342 24.8062L10.3945 24.8432L10.3556 24.8931L10.3031 24.943L10.2642 24.9928L10.2117 25.0427L10.1338 25.1424L10.0813 25.1923L10.0035 25.292L9.951 25.3418L9.91207 25.3917L9.85959 25.4416L9.78172 25.5413L9.72924 25.5911L9.69031 25.641L9.63783 25.6909L9.5989 25.7407L9.54642 25.7037L9.49394 25.6539L9.23156 25.4689L9.16553 25.4319L9.0081 25.3547L8.87606 25.3032L8.61198 25.2518L8.45286 25.226H8.30897L8.04489 25.2775L7.91285 25.329L7.86037 25.4785L7.79435 25.5043L7.47949 25.7262L7.44055 25.7761L7.38808 25.826L7.27127 25.9755L7.24419 26.0383L7.20525 26.0881L7.09691 26.339L7.06983 26.4645L7.05628 26.5401V27.0017L7.09691 27.1899L7.124 27.2526L7.20356 27.2269L7.25773 27.3523L7.29666 27.415L7.36268 27.5148L7.44055 27.6145L7.49303 27.6643L7.53197 27.7142L7.79435 27.8992L8.12445 28.0278L8.32251 28.0664L8.40207 28.0793H8.52057L8.6797 28.0536L9.0098 27.9892L9.07582 27.9635L9.12829 27.9378L9.19431 27.912L9.24679 27.8863L9.29927 27.8493V27.2253H8.31913V26.3004H10.4876V28.3833ZM11.0141 28.9334L11.0666 28.8208L11.1207 28.6953L11.1732 28.5827L11.2545 28.3946L11.2816 28.3576L11.5795 27.6676L11.632 27.555L12.4987 25.5477L12.5512 25.4351L12.822 24.8078L12.8356 24.7451L13.0522 24.2433L13.1047 24.1307L13.1318 24.068H14.3676L15.1801 25.9498L15.2326 26.0624L16.4785 28.9478L16.531 29.0604L16.3989 29.0106H15.0972L14.6909 28.0697H12.6968L12.5613 28.3833L12.5089 28.4959L12.2922 28.9977H10.9785L11.0141 28.9334ZM18.5184 36.7373L11.632 34.4888H25.6824L18.5184 36.7373ZM26.8639 29.009H22.9738V24.3768H26.825V25.4255H24.2485V26.1878H26.5609V27.1738H24.2485V27.9603H26.8639V29.009ZM24.2096 17.9191V8.02909C24.2096 6.11832 25.1948 5.18224 27.1924 5.18224H28.3892C30.3867 5.18224 31.3465 6.10707 31.3465 8.00497V11.1397H28.941V8.14168C28.941 7.53049 28.638 7.24259 28.0218 7.24259H27.6139C26.9706 7.24259 26.6676 7.53049 26.6676 8.14168V17.8194C26.6676 18.4306 26.9706 18.7185 27.6139 18.7185H28.0743C28.6922 18.7185 28.9935 18.4306 28.9935 17.8194V14.3469H31.3855V17.9175C31.3855 19.8283 30.4002 20.7643 28.4027 20.7643H27.194C25.1948 20.766 24.2096 19.8299 24.2096 17.9191ZM31.5564 27.8091L31.465 27.7335L31.4515 27.7962L31.4379 27.8718L31.4244 27.9346L31.3973 27.9973L31.3838 28.06L31.3296 28.1855L31.3025 28.2353L31.2754 28.2981L31.0808 28.5474L30.9369 28.6841L30.8319 28.7581L30.7794 28.7838L30.727 28.8208L30.6609 28.8578L30.5949 28.8835L30.5289 28.9205L30.3308 28.9977V28.9848L30.2648 29.0106L30.1988 29.0234L30.0803 29.0492L29.8162 29.1006L29.7367 29.1135L29.6706 29.1264H29.4083L29.3422 29.1135H29.2627L29.1306 29.0878L29.0511 29.0749L28.6549 28.9977L28.5889 28.972L28.5229 28.9591L27.8627 28.7018L27.7967 28.6648L27.7442 28.6278L27.6782 28.5908L27.3109 28.3318L27.2584 28.282L27.2973 28.2321L27.3498 28.1823L27.3887 28.1324L27.4412 28.0825L27.5191 27.9828L27.5715 27.933L27.6105 27.8831L27.663 27.8332L27.7019 27.7834L27.7544 27.7335L27.8322 27.6338L27.8847 27.5839L27.9236 27.5341L27.9761 27.4842L28.0151 27.4343L28.0675 27.4713L28.1336 27.5083L28.186 27.5453L28.2521 27.5823L28.3045 27.6193L28.3706 27.6563L28.423 27.6933L28.4891 27.719L28.5415 27.756L29.0697 27.9619L29.2677 28.0005L29.3473 28.0134L29.4133 28.0262H29.4793L29.5589 28.0391H29.7028L29.7824 28.0262L29.9804 27.9876L30.0854 27.9362L30.1379 27.8992L30.1768 27.8493L30.2039 27.7995L30.231 27.7367L30.2445 27.674V27.6611L30.231 27.5855L30.2039 27.5228L30.1649 27.4729L30.06 27.399L30.0075 27.3732L29.8755 27.3218L29.7959 27.2848L29.691 27.259L29.6249 27.2333L29.5589 27.2204L29.4929 27.1947L29.4269 27.1818L29.3473 27.1561L29.2813 27.1432L29.2017 27.1175L29.1357 27.1046L29.0697 27.0789L29.0037 27.066L28.8716 27.0146L28.8056 27.0017L28.6075 26.9245L28.528 26.8988L28.3299 26.8216L28.1979 26.7476L28.1454 26.7106L28.0794 26.6736L27.922 26.5626L27.817 26.4629L27.6613 26.2634L27.6223 26.2007L27.5682 26.101L27.5546 26.0383L27.5275 25.9884L27.4734 25.7375L27.4598 25.6619V25.5123L27.5275 25.1987L27.5546 25.136L27.5682 25.0732L27.6494 24.885L27.7273 24.7596L27.8052 24.6599L28.0151 24.4604L28.225 24.3125L28.291 24.2755L28.357 24.2497L28.423 24.2127L28.6871 24.1098L28.7396 24.0969L29.2677 23.994H29.5572L29.7163 24.0197H29.7824L29.8619 24.0326L29.9279 24.0455L30.0075 24.0583L30.3376 24.1227L30.4696 24.1741L30.5357 24.187L30.8658 24.3157L30.9318 24.3527L30.9843 24.3784L31.1163 24.4524L31.1688 24.4894L31.2348 24.5264L31.4447 24.6743L31.289 24.8738L31.25 24.9365L30.9775 25.2855L30.9386 25.3483L30.8607 25.448L30.7286 25.723L30.6897 25.7729L30.6372 25.7359L30.5712 25.6989L30.4663 25.6249L30.4002 25.5992L30.3478 25.5622L30.2817 25.5364L30.2293 25.5107L30.1632 25.485L30.1108 25.4592L30.0448 25.4335L29.9923 25.4078L29.9127 25.382L29.7807 25.3306L29.7147 25.3177L29.6757 25.3434L29.4116 25.292H29.2677L29.1882 25.3048L29.0561 25.3306L28.9512 25.382L28.8852 25.4319L28.8462 25.4946L28.8192 25.5574L28.8056 25.6201V25.6329L28.8192 25.7198L28.8462 25.7954L28.8733 25.8324L28.9258 25.8822L28.9918 25.9192L29.0443 25.9562L29.1103 25.982L29.2694 26.0334L29.3219 26.0463L29.3744 26.072L29.4404 26.0849L29.5064 26.1106L29.5725 26.1235L29.8111 26.2007L29.8907 26.2136L29.9567 26.2393L30.0363 26.265L30.1023 26.2779L30.4324 26.4066L30.4984 26.4195L30.578 26.4452L30.644 26.4822L30.71 26.5079L30.9081 26.6189L31.0655 26.7299L31.2754 26.9293L31.3144 26.9792L31.3533 27.0419L31.3922 27.0918L31.4312 27.1545L31.4583 27.2043L31.4853 27.2671L31.5531 27.5807L31.5666 27.6563V27.8091H31.5564Z" fill="white"/>
</svg>
