<svg width="190" height="62" viewBox="0 0 190 62" fill="none" xmlns="http://www.w3.org/2000/svg">
<path d="M24.7826 60.2609L16.1775 23.9674C16.1775 28.4185 16.1775 28.4185 16.1775 41.4294V59.9185H0V1.02719H24.0942L32.0109 32.8696L39.9275 1.02719H64.0217V60.2609H47.8442V23.9674L39.2391 60.2609H25.471H24.7826Z" fill="black"/>
<path d="M90.8695 52.0435L88.1159 60.2609H69.5289L90.5253 1.02719H109.112L130.453 60.2609H111.522L108.768 52.0435H90.1811H90.8695ZM100.163 22.2555L95 39.375H105.67L100.507 22.2555H100.163Z" fill="black"/>
<path d="M171.413 23.2826C171.069 21.2283 169.348 14.7228 161.431 14.7228C153.514 14.7228 149.728 22.9402 149.728 30.8152C149.728 38.6902 152.482 46.9076 161.431 46.9076C170.38 46.9076 170.38 42.7989 171.413 36.9783H190C190 48.962 180.018 61.6304 162.119 61.6304C144.221 61.6304 131.141 48.2772 131.141 30.8152C131.141 13.3533 143.188 0 162.119 0C178.985 0 187.935 8.55978 189.656 23.2826H171.413Z" fill="black"/>
</svg>
