<svg width="50" height="40" viewBox="0 0 50 40" fill="none" xmlns="http://www.w3.org/2000/svg">
<path d="M18.7612 0.769287C18.8725 0.789979 18.9836 0.811131 19.0946 0.832723C21.1223 1.22705 23.1182 1.76807 25.105 2.33074C26.3039 2.67821 27.4994 3.03773 28.6873 3.42061C30.5532 4.01373 32.4111 4.68532 34.1011 5.68687C34.8581 6.14567 35.5852 6.66396 36.2065 7.29614C36.8798 7.95276 37.4309 8.73166 37.8354 9.57918C38.5724 11.1151 38.8247 12.8309 38.8993 14.5179C38.9344 15.6188 38.9322 16.7291 38.7263 17.8157C38.5552 18.7599 38.2509 19.691 37.7447 20.5112C37.2978 21.2357 36.6765 21.862 35.9223 22.2657C35.1989 22.6548 34.3706 22.8402 33.5503 22.8238C32.3061 22.8369 31.0988 22.4409 29.9823 21.9222C29.9699 19.6313 29.9717 17.3401 29.9735 15.0491C29.9746 13.6341 29.9758 12.2192 29.9735 10.8045C29.9717 10.651 29.9727 10.4971 29.9736 10.3432C29.9769 9.82464 29.9802 9.30513 29.8759 8.79517C29.7808 8.28272 29.5712 7.76625 29.1682 7.41841C28.9009 7.17788 28.5545 7.0421 28.2064 6.96874C27.8542 6.90194 27.4786 7.05122 27.2606 7.33337C26.8982 7.78523 26.8031 8.38528 26.7866 8.94774C26.7854 13.1085 26.7858 17.2694 26.7863 21.4302C26.7869 27.1904 26.7875 32.9505 26.7837 38.7102C24.1095 37.8645 21.435 37.0181 18.7616 36.1698C18.7587 24.3907 18.7598 12.6119 18.7612 0.832723C18.7612 0.811578 18.7612 0.790433 18.7612 0.769287Z" fill="black"/>
<path d="M6.74144 25.8748C8.22537 25.3504 9.70864 24.824 11.1919 24.2976L11.1937 24.2969C13.1947 23.5867 15.1958 22.8765 17.1985 22.1715C17.2017 22.9751 17.2012 23.7788 17.2006 24.5828C17.2002 25.1456 17.1998 25.7085 17.2007 26.2715C17.2001 26.3247 17.2006 26.3779 17.2012 26.4312C17.2025 26.5636 17.2039 26.6959 17.1872 26.8274C15.494 27.4264 13.8021 28.0321 12.1111 28.6376L12.1096 28.6381C11.0481 29.0182 9.98666 29.3982 8.9248 29.7766C8.54298 29.9204 8.1513 30.0835 7.85689 30.3744C7.71975 30.5109 7.6082 30.7124 7.68317 30.9081C7.77753 31.1384 8.01305 31.2636 8.23029 31.3585C8.83446 31.6037 9.49496 31.6384 10.1386 31.668C10.8562 31.6567 11.5766 31.603 12.2796 31.4483C12.7546 31.3552 13.2118 31.1953 13.6645 31.0256C13.9606 30.9186 14.2567 30.8115 14.5528 30.7043C15.4337 30.3856 16.3149 30.0667 17.197 29.7517C17.2026 30.4781 17.2017 31.2047 17.2009 31.9315C17.2004 32.361 17.1999 32.7906 17.2007 33.2203C17.1995 33.2953 17.2002 33.3704 17.2009 33.4455C17.2024 33.602 17.2038 33.7586 17.1883 33.9142C15.7407 34.1737 14.276 34.35 12.8047 34.373C9.84203 34.4398 6.87237 33.982 4.05814 33.0579C3.13506 32.7911 2.21784 32.4359 1.44726 31.8508C1.02302 31.5231 0.643405 31.111 0.450304 30.604C0.288655 30.1748 0.300358 29.6788 0.501871 29.2645C0.696069 28.8513 1.03546 28.5246 1.40923 28.271C2.27416 27.6749 3.22796 27.2205 4.19456 26.815C4.7781 26.5664 5.37691 26.3565 5.97563 26.1466C6.23132 26.057 6.48699 25.9674 6.74144 25.8748Z" fill="black"/>
<path d="M34.7934 24.3188C35.5123 24.2358 36.2354 24.2105 36.9581 24.1852C37.0303 24.1827 37.1024 24.1801 37.1746 24.1775C39.7898 24.1874 42.4183 24.5122 44.9198 25.2952C45.1846 25.3755 45.445 25.4686 45.7054 25.5617C45.9276 25.6412 46.1499 25.7207 46.375 25.7923C47.2465 26.1102 48.1192 26.4956 48.8169 27.1209C49.2364 27.5026 49.5978 28.0169 49.6029 28.6042C49.6278 29.082 49.4109 29.5404 49.1004 29.893C48.5094 30.5544 47.7282 31.0088 46.9437 31.4052C46.3159 31.7246 45.6528 31.9589 44.9902 32.1929C44.7715 32.2701 44.553 32.3473 44.3358 32.4275C43.2334 32.8226 42.1311 33.2176 41.0287 33.6126C36.7871 35.1326 32.5454 36.6526 28.3044 38.1744C28.3041 37.5769 28.3043 36.9795 28.3044 36.3821C28.3047 35.4859 28.305 34.5897 28.3036 33.6937C28.3048 33.685 28.3051 33.6754 28.305 33.6653C28.305 33.6576 28.3047 33.6496 28.3044 33.6414C28.3025 33.5867 28.3004 33.5262 28.3633 33.5145C32.0212 32.2155 35.6783 30.9133 39.3355 29.611C39.7436 29.4657 40.1516 29.3204 40.5597 29.1751C40.6754 29.1319 40.793 29.0912 40.911 29.0504C41.3531 28.8975 41.7997 28.743 42.1681 28.4491C42.359 28.2994 42.5459 28.0615 42.4523 27.8049C42.3547 27.5804 42.1213 27.4559 41.9066 27.3632C41.2981 27.1227 40.6354 27.076 39.9881 27.0581C38.9747 27.065 37.9521 27.1898 36.9884 27.514C35.7009 27.9643 34.4143 28.417 33.1278 28.8697C31.521 29.4352 29.913 30.0011 28.3044 30.5617C28.3045 29.9865 28.3044 29.4115 28.3044 28.8366C28.3044 28.8284 28.3044 28.8202 28.3044 28.812C28.3043 27.7915 28.3042 26.7712 28.3051 25.7507C30.4011 25.0167 32.5895 24.5717 34.7934 24.3188Z" fill="black"/>
<path d="M46.6731 35.3694C47.3054 35.2906 47.9659 35.5734 48.3448 36.0852C48.7584 36.6129 48.8341 37.3743 48.5419 37.9773C48.2472 38.6029 47.5728 39.0412 46.8746 39.0183C46.232 39.0325 45.6096 38.6591 45.2932 38.1061C45.0072 37.6189 44.9732 36.9951 45.1945 36.4768C45.4432 35.8786 46.0291 35.4417 46.6731 35.3694ZM46.5356 35.7063C46.1816 35.7866 45.8601 36.0008 45.6487 36.2954C45.3945 36.6418 45.2983 37.1002 45.3949 37.5196C45.4761 37.909 45.7229 38.2569 46.0561 38.4726C46.5692 38.8091 47.2886 38.7905 47.7794 38.4208C48.2859 38.0638 48.5266 37.378 48.3525 36.7841C48.245 36.3826 47.9575 36.041 47.5954 35.8421C47.2736 35.6712 46.8896 35.622 46.5356 35.7063Z" fill="black"/>
<path d="M46.0974 36.1359C46.2952 36.1348 46.4933 36.1349 46.6915 36.135C46.8235 36.135 46.9555 36.1351 47.0874 36.1348C47.274 36.1373 47.4795 36.1808 47.6115 36.3235C47.7446 36.4735 47.7553 36.6914 47.7187 36.8794C47.7031 36.9739 47.6357 37.039 47.5694 37.1031C47.5487 37.1231 47.528 37.143 47.5091 37.1637C47.5202 37.1734 47.532 37.1833 47.5436 37.1931C47.6048 37.2442 47.669 37.298 47.6828 37.3812C47.6994 37.464 47.7011 37.5486 47.7028 37.6332C47.7051 37.7428 47.7073 37.8522 47.7417 37.9572L47.7425 37.9586C47.7807 38.0239 47.8193 38.0899 47.8222 38.1682C47.7447 38.1702 47.6673 38.1703 47.5898 38.1704C47.5306 38.1705 47.4715 38.1705 47.4122 38.1715C47.3606 38.0501 47.3595 37.9203 47.3584 37.7904C47.3575 37.6885 47.3566 37.5866 47.3314 37.4886C47.3087 37.3977 47.2144 37.3411 47.1244 37.344C46.9685 37.3374 46.8123 37.3386 46.6564 37.3398C46.5892 37.3403 46.5221 37.3408 46.4551 37.3407C46.4539 37.4404 46.4546 37.5403 46.4554 37.6401C46.4566 37.8174 46.4579 37.9947 46.4485 38.1715C46.3322 38.1696 46.2156 38.1696 46.0993 38.1718C46.0951 37.6889 46.0959 37.2069 46.0968 36.7249C46.0971 36.5286 46.0974 36.3323 46.0974 36.1359ZM46.4551 36.4585C46.4555 36.6458 46.4555 36.833 46.4551 37.021C46.475 37.0211 46.4949 37.0212 46.5148 37.0213C46.6943 37.0223 46.8741 37.0234 47.0542 37.0217C47.1533 37.021 47.2685 37.0024 47.3329 36.9184C47.4005 36.8115 47.399 36.6691 47.338 36.5604C47.2868 36.4746 47.1782 36.4662 47.0889 36.4607C46.9303 36.4561 46.7718 36.457 46.6133 36.4579C46.5606 36.4582 46.5078 36.4585 46.4551 36.4585Z" fill="black"/>
<path fill-rule="evenodd" clip-rule="evenodd" d="M18.7612 0.832723H19.0946C21.1223 1.22705 23.1182 1.76807 25.105 2.33074C26.3039 2.67821 27.4994 3.03773 28.6873 3.42061C30.5532 4.01373 32.4111 4.68532 34.1011 5.68687C34.8581 6.14567 35.5852 6.66396 36.2065 7.29614C36.8798 7.95276 37.4309 8.73166 37.8354 9.57918C38.5724 11.1151 38.8247 12.8309 38.8993 14.5179C38.9344 15.6188 38.9322 16.7291 38.7263 17.8157C38.5552 18.7599 38.2509 19.691 37.7447 20.5112C37.2978 21.2357 36.6765 21.862 35.9223 22.2657C35.1989 22.6548 34.3706 22.8402 33.5503 22.8238C32.3061 22.8369 31.0988 22.4409 29.9823 21.9222C29.9699 19.6313 29.9717 17.3401 29.9735 15.0491C29.9746 13.6341 29.9758 12.2192 29.9735 10.8045C29.9717 10.651 29.9727 10.4971 29.9736 10.3432C29.9769 9.82464 29.9802 9.30513 29.8759 8.79517C29.7808 8.28272 29.5712 7.76625 29.1682 7.41841C28.9009 7.17788 28.5545 7.0421 28.2064 6.96874C27.8542 6.90194 27.4786 7.05122 27.2606 7.33337C26.8982 7.78523 26.8031 8.38528 26.7866 8.94774C26.7854 13.1085 26.7858 17.2694 26.7863 21.4302C26.7869 27.1904 26.7875 32.9505 26.7837 38.7102C24.1095 37.8645 21.435 37.0181 18.7616 36.1698C18.7587 24.3907 18.7598 12.6119 18.7612 0.832723ZM11.1937 24.2969L11.1919 24.2976C9.70864 24.824 8.22537 25.3504 6.74144 25.8748C6.48699 25.9674 6.23132 26.057 5.97563 26.1466C5.37691 26.3565 4.7781 26.5664 4.19456 26.815C3.22796 27.2205 2.27416 27.6749 1.40923 28.271C1.03546 28.5246 0.696069 28.8513 0.501871 29.2645C0.300358 29.6788 0.288655 30.1748 0.450304 30.604C0.643405 31.111 1.02302 31.5231 1.44726 31.8508C2.21784 32.4359 3.13506 32.7911 4.05814 33.0579C6.87237 33.982 9.84203 34.4398 12.8047 34.373C14.276 34.35 15.7407 34.1737 17.1883 33.9142C17.2038 33.7586 17.2024 33.602 17.2009 33.4455C17.2002 33.3704 17.1995 33.2953 17.2007 33.2203C17.1999 32.7906 17.2004 32.361 17.2009 31.9315C17.2017 31.2047 17.2026 30.4781 17.197 29.7517C16.3149 30.0667 15.4337 30.3856 14.5528 30.7043C14.2567 30.8115 13.9606 30.9186 13.6645 31.0256C13.2118 31.1953 12.7546 31.3552 12.2796 31.4483C11.5766 31.603 10.8562 31.6567 10.1386 31.668C9.49496 31.6384 8.83446 31.6037 8.23029 31.3585C8.01305 31.2636 7.77753 31.1384 7.68317 30.9081C7.6082 30.7124 7.71975 30.5109 7.85689 30.3744C8.1513 30.0835 8.54298 29.9204 8.9248 29.7766C9.98666 29.3982 11.0481 29.0182 12.1096 28.6381L12.1111 28.6376C13.8021 28.0321 15.494 27.4264 17.1872 26.8274C17.2039 26.6959 17.2025 26.5636 17.2012 26.4312C17.2006 26.3779 17.2001 26.3247 17.2007 26.2715C17.1998 25.7085 17.2002 25.1456 17.2006 24.5828C17.2012 23.7788 17.2017 22.9751 17.1985 22.1715C15.1958 22.8765 13.1947 23.5867 11.1937 24.2969ZM37.1746 24.1775C37.1024 24.1801 37.0303 24.1827 36.9581 24.1852C36.2354 24.2105 35.5123 24.2358 34.7934 24.3188C32.5895 24.5717 30.4011 25.0167 28.3051 25.7507C28.3042 26.7712 28.3043 27.7915 28.3044 28.812V28.8366C28.3044 29.4115 28.3045 29.9865 28.3044 30.5617C29.913 30.0011 31.521 29.4352 33.1278 28.8697C34.4143 28.417 35.7009 27.9643 36.9884 27.514C37.9521 27.1898 38.9747 27.065 39.9881 27.0581C40.6354 27.076 41.2981 27.1227 41.9066 27.3632C42.1213 27.4559 42.3547 27.5804 42.4523 27.8049C42.5459 28.0615 42.359 28.2994 42.1681 28.4491C41.7997 28.743 41.3531 28.8975 40.911 29.0504C40.793 29.0912 40.6754 29.1319 40.5597 29.1751L39.3355 29.611C35.6783 30.9133 32.0212 32.2155 28.3633 33.5145C28.3004 33.5262 28.3025 33.5867 28.3044 33.6414C28.3047 33.6496 28.305 33.6576 28.305 33.6653C28.3051 33.6754 28.3048 33.685 28.3036 33.6937C28.305 34.5897 28.3047 35.4859 28.3044 36.3821C28.3043 36.9795 28.3041 37.5769 28.3044 38.1744C32.5454 36.6526 36.7871 35.1326 41.0287 33.6126L44.3358 32.4275C44.553 32.3473 44.7715 32.2701 44.9902 32.1929C45.6528 31.9589 46.3159 31.7246 46.9437 31.4052C47.7282 31.0088 48.5094 30.5544 49.1004 29.893C49.4109 29.5404 49.6278 29.082 49.6029 28.6042C49.5978 28.0169 49.2364 27.5026 48.8169 27.1209C48.1192 26.4956 47.2465 26.1102 46.375 25.7923C46.1499 25.7207 45.9276 25.6412 45.7054 25.5617C45.445 25.4686 45.1846 25.3755 44.9198 25.2952C42.4183 24.5122 39.7898 24.1874 37.1746 24.1775ZM48.3448 36.0852C47.9659 35.5734 47.3054 35.2906 46.6731 35.3694C46.0291 35.4417 45.4432 35.8786 45.1945 36.4768C44.9732 36.9951 45.0072 37.6189 45.2932 38.1061C45.6096 38.6591 46.232 39.0325 46.8746 39.0183C47.5728 39.0412 48.2472 38.6029 48.5419 37.9773C48.8341 37.3743 48.7584 36.6129 48.3448 36.0852ZM46.5356 35.7063C46.1816 35.7866 45.8601 36.0008 45.6487 36.2954C45.3945 36.6418 45.2983 37.1002 45.3949 37.5196C45.4761 37.909 45.7229 38.2569 46.0561 38.4726C46.5692 38.8091 47.2886 38.7905 47.7794 38.4208C48.2859 38.0638 48.5266 37.378 48.3525 36.7841C48.245 36.3826 47.9575 36.041 47.5954 35.8421C47.2736 35.6712 46.8896 35.622 46.5356 35.7063ZM47.0874 36.1348C46.9555 36.1351 46.8235 36.135 46.6915 36.135C46.4933 36.1349 46.2952 36.1348 46.0974 36.1359C46.0974 36.3323 46.0971 36.5286 46.0968 36.7249C46.0959 37.2069 46.0951 37.6889 46.0993 38.1718C46.2156 38.1696 46.3322 38.1696 46.4485 38.1715C46.4579 37.9947 46.4566 37.8174 46.4554 37.6401C46.4546 37.5403 46.4539 37.4404 46.4551 37.3407C46.5221 37.3408 46.5892 37.3403 46.6564 37.3398C46.8123 37.3386 46.9685 37.3374 47.1244 37.344C47.2144 37.3411 47.3087 37.3977 47.3314 37.4886C47.3566 37.5866 47.3575 37.6885 47.3584 37.7904C47.3595 37.9203 47.3606 38.0501 47.4122 38.1715C47.4715 38.1705 47.5306 38.1705 47.5898 38.1704C47.6673 38.1703 47.7447 38.1702 47.8222 38.1682C47.8193 38.0899 47.7807 38.0239 47.7425 37.9586L47.7417 37.9572C47.7073 37.8522 47.7051 37.7428 47.7028 37.6332C47.7011 37.5486 47.6994 37.464 47.6828 37.3812C47.669 37.298 47.6048 37.2442 47.5436 37.1931C47.532 37.1833 47.5202 37.1734 47.5091 37.1637C47.528 37.143 47.5487 37.1231 47.5694 37.1031C47.6357 37.039 47.7031 36.9739 47.7187 36.8794C47.7553 36.6914 47.7446 36.4735 47.6115 36.3235C47.4795 36.1808 47.274 36.1373 47.0874 36.1348ZM46.4551 37.021C46.4555 36.833 46.4555 36.6458 46.4551 36.4585C46.5078 36.4585 46.5606 36.4582 46.6133 36.4579C46.7718 36.457 46.9303 36.4561 47.0889 36.4607C47.1782 36.4662 47.2868 36.4746 47.338 36.5604C47.399 36.6691 47.4005 36.8115 47.3329 36.9184C47.2685 37.0024 47.1533 37.021 47.0542 37.0217C46.8741 37.0234 46.6943 37.0223 46.5148 37.0213L46.4551 37.021Z" fill="black"/>
</svg>
