<svg width="83" height="67" viewBox="0 0 83 67" fill="none" xmlns="http://www.w3.org/2000/svg">
    <path d="M20.7965 66.5282H16.9815L10.4215 57.3275L3.81502 66.5282H0L8.46749 54.6852L0.69787 43.7859H4.51289L10.4215 52.043L16.3302 43.7859H20.1452L12.329 54.6852L20.7965 66.5282ZM40.616 60.0641C40.616 62.0458 39.9647 63.65 38.662 64.7824C37.3593 65.9148 35.4983 66.5282 33.079 66.5282H22.611V56.3838H17.5863L19.6799 53.4585H22.611V43.7859H32.6603C34.94 43.7859 36.6614 44.3521 37.8711 45.4373C39.0807 46.5225 39.6855 47.9852 39.6855 49.731C39.6855 51.9014 38.7085 53.6 36.7545 54.6852C38.0107 55.157 38.9411 55.912 39.5925 56.8085C40.2904 57.7049 40.616 58.8373 40.616 60.0641ZM26.0073 53.5056H32.4277C33.7304 53.5056 34.7074 53.2225 35.3587 52.6092C36.0101 52.043 36.3358 51.1465 36.3358 49.9669C36.3358 48.9761 36.0101 48.1739 35.3122 47.6077C34.6609 47.0415 33.6839 46.7584 32.4277 46.7584H26.0073V53.5056ZM37.1732 59.9697C37.1732 58.7901 36.801 57.8465 36.1031 57.2803C35.4053 56.6669 34.3352 56.3838 32.9395 56.3838H26.0073V63.5085H32.8929C34.2422 63.5085 35.3122 63.1782 36.0566 62.612C36.801 61.9986 37.1732 61.1021 37.1732 59.9697ZM63.6923 55.157C63.6923 56.9028 63.4596 58.5542 62.9479 59.9697C62.4361 61.3852 61.6917 62.6592 60.7147 63.7444C59.6911 64.8296 58.528 65.6789 57.2253 66.1979C55.9226 66.7641 54.4339 67 52.759 67C51.1306 67 49.5953 66.7169 48.2926 66.1979C46.9899 65.6317 45.8268 64.8296 44.8033 63.7444C43.7797 62.6592 43.0353 61.3852 42.5235 59.9697C42.0118 58.5542 41.7792 56.9028 41.7792 55.157C41.7792 53.4113 42.0118 51.7599 42.5235 50.3444C43.0353 48.9289 43.7797 47.6077 44.8033 46.5225C45.7803 45.4373 46.9434 44.6352 48.2926 44.069C49.5953 43.55 51.1306 43.2669 52.759 43.2669C54.3873 43.2669 55.8761 43.55 57.2253 44.069C58.528 44.588 59.7377 45.4373 60.7147 46.5225C61.6917 47.6077 62.4826 48.9289 62.9479 50.3444C63.4131 51.7599 63.6923 53.3641 63.6923 55.157ZM45.315 55.157C45.315 57.8465 46.0129 59.9697 47.3621 61.5268C48.7113 63.0838 50.4793 63.8859 52.759 63.8859C54.9922 63.8859 56.8066 63.0838 58.1558 61.5268C59.505 59.9697 60.1564 57.8465 60.1564 55.157C60.1564 52.4676 59.505 50.2972 58.1558 48.7401C56.8066 47.1831 54.9922 46.381 52.759 46.381C50.5258 46.381 48.7113 47.1831 47.3621 48.7401C46.0129 50.3444 45.315 52.4676 45.315 55.157ZM74.486 54.6852L82.3021 43.7859H78.4871L72.5785 52.043L66.6698 43.7859H62.8548L70.671 54.6852L62.2035 66.5282H66.0185L72.5785 57.3275L79.185 66.5282H83L74.486 54.6852ZM41.5 15.193C47.1295 19.5338 56.667 30.1972 53.7825 33.2169C50.4793 36.1423 46.199 37.888 41.5 37.888C36.801 37.888 32.4742 36.1423 29.2175 33.2169C26.2864 30.1972 35.8705 19.5338 41.4535 15.2401C41.4535 15.193 41.5 15.193 41.5 15.193ZM51.2237 2.7838C48.3857 1.03803 45.2685 0 41.5 0C37.7315 0 34.6144 1.03803 31.7763 2.7838C31.7298 2.7838 31.7298 2.83099 31.7298 2.87817C31.7298 2.92535 31.7763 2.92535 31.8229 2.92535C35.4518 2.12324 40.9417 5.28451 41.4535 5.61479H41.5465C42.0583 5.28451 47.5482 2.12324 51.1771 2.92535C51.2237 2.92535 51.2702 2.92535 51.2702 2.87817C51.2702 2.83099 51.2702 2.7838 51.2237 2.7838ZM28.4266 5.42606C28.38 5.42606 28.38 5.47324 28.3335 5.47324C24.9372 8.91761 22.8436 13.6831 22.8436 18.9204C22.8436 23.2141 24.2859 27.2246 26.6586 30.3859C26.6586 30.4331 26.7052 30.4331 26.7517 30.4331C26.7982 30.4331 26.7982 30.3859 26.7517 30.3387C25.3094 25.8563 32.6138 15.0514 36.3823 10.5218L36.4288 10.4746C36.4288 10.4275 36.4288 10.4275 36.3823 10.4275C30.6598 4.67113 28.7522 5.28451 28.4266 5.42606ZM46.6177 10.3803L46.5712 10.4275C46.5712 10.4275 46.5712 10.4746 46.6177 10.4746C50.3862 15.0042 57.6441 25.8092 56.2483 30.2915V30.3859C56.2948 30.3859 56.3414 30.3859 56.3414 30.3387C58.7141 27.1775 60.1564 23.1669 60.1564 18.8732C60.1564 13.6359 58.0628 8.87042 54.62 5.42606C54.5734 5.37887 54.5734 5.37887 54.5269 5.37887C54.2478 5.28451 52.3402 4.67113 46.6177 10.3803Z" fill="black"/>
</svg>
