<svg width="78" height="66" viewBox="0 0 78 66" fill="none" xmlns="http://www.w3.org/2000/svg">
    <path fill-rule="evenodd" clip-rule="evenodd" d="M11.029 51.4412L9.65609 53.8727C8.59844 53.1276 7.16618 52.6797 5.91489 52.6797C4.48555 52.6797 3.60109 53.2762 3.60109 54.3438C3.60109 55.6426 5.17249 55.9438 7.5077 56.7889C10.0181 57.6826 11.461 58.7357 11.461 61.0506C11.461 64.2194 8.98667 66 5.43131 66C3.69839 66 1.60838 65.5493 0 64.5652L1.00219 61.8685C2.30797 62.5641 3.86964 62.976 5.26103 62.976C7.13699 62.976 8.02923 62.2785 8.02923 61.2468C8.02923 60.0675 6.66897 59.7119 4.4729 58.9805C1.97131 58.1382 0.237413 57.0337 0.237413 54.4701C0.237413 51.5791 2.53565 49.918 5.84289 49.918C8.14697 49.918 9.99957 50.6533 11.0271 51.4412H11.029Z" fill="white"/>
    <path fill-rule="evenodd" clip-rule="evenodd" d="M21.7594 52.9769V65.7328H18.528V52.9769H13.8352V50.1841H26.4366V52.9769H21.7594Z" fill="white"/>
    <path fill-rule="evenodd" clip-rule="evenodd" d="M33.2497 52.9692V56.4722H39.436V59.265H33.2497V62.9147H40.4265V65.7328H30.0193V50.1841H40.4265V52.9692H33.2497Z" fill="white"/>
    <path fill-rule="evenodd" clip-rule="evenodd" d="M47.6404 62.7146L46.6187 65.7328H43.2317L49.0191 50.1841H52.2709L58.2218 65.7328H54.719L53.6749 62.7146H47.6404ZM50.6255 53.894L48.519 60.1189H52.7778L50.6255 53.894Z" fill="white"/>
    <path fill-rule="evenodd" clip-rule="evenodd" d="M74.8076 56.1943L70.5847 65.2801H68.7613L64.6056 56.275V65.7328H61.5105V50.1841H64.5988L69.7869 61.408L74.7871 50.1841H77.9027V65.7328H74.8086L74.8076 56.1943Z" fill="white"/>
    <path fill-rule="evenodd" clip-rule="evenodd" d="M45.489 22.137L38.5379 27.134C38.5408 27.2253 38.5447 27.3186 38.5447 27.4099C38.5447 30.6253 35.9477 33.2414 32.7573 33.2414C29.955 33.2414 27.613 31.2267 27.0817 28.5581L20.1744 25.6817C22.7149 33.6154 30.1623 39.3595 38.9524 39.3595C49.8393 39.3595 58.6635 30.5486 58.6635 19.6802C58.6635 8.81185 49.8393 0 38.9524 0C28.0654 0 19.9768 8.09494 19.286 18.3377L29.5006 22.5916C30.4298 21.9514 31.5507 21.5774 32.7573 21.5774C32.8643 21.5774 32.9723 21.5803 33.0793 21.5862L37.9531 14.4695C37.9531 14.4355 37.9531 14.4034 37.9531 14.3694C37.9531 10.0864 41.4121 6.60185 45.6642 6.60185C49.9162 6.60185 53.3742 10.0864 53.3742 14.3694C53.3742 18.6524 49.9152 22.1389 45.6642 22.1389C45.6058 22.1389 45.5464 22.1379 45.489 22.136V22.137Z" fill="white"/>
    <path fill-rule="evenodd" clip-rule="evenodd" d="M31.2861 23.3085L33.8811 24.3888C35.5119 25.0736 36.2825 26.9592 35.6033 28.6019C34.9242 30.2446 33.0511 31.0207 31.4214 30.3369L28.9091 29.2916C29.3537 30.2242 30.1243 31.0062 31.147 31.4365C33.3567 32.3642 35.905 31.3073 36.8264 29.0798C37.272 28.0006 37.2759 26.8115 36.8332 25.7313C36.3915 24.6501 35.5586 23.8079 34.4873 23.3581C33.4248 22.9122 32.2864 22.9287 31.2861 23.3095V23.3085Z" fill="black"/>
    <path fill-rule="evenodd" clip-rule="evenodd" d="M40.592 14.3704C40.592 17.2244 42.8971 19.5461 45.7305 19.5461C48.5639 19.5461 50.8689 17.2244 50.8689 14.3704C50.8689 11.5163 48.5639 9.1936 45.7305 9.1936C42.8971 9.1936 40.592 11.5163 40.592 14.3704ZM45.7383 18.2493C43.6074 18.2493 41.8793 16.5085 41.8793 14.3606C41.8793 12.2128 43.6074 10.472 45.7383 10.472C47.8691 10.472 49.5991 12.2118 49.5991 14.3606C49.5991 16.5095 47.8711 18.2493 45.7383 18.2493Z" fill="white"/>
    <path fill-rule="evenodd" clip-rule="evenodd" d="M45.7381 10.4722C43.6072 10.4722 41.8782 12.213 41.8782 14.3608C41.8782 16.5086 43.6072 18.2485 45.7381 18.2485C47.869 18.2485 49.599 16.5086 49.599 14.3608C49.599 12.213 47.8709 10.4722 45.7381 10.4722Z" fill="black"/>
    <path fill-rule="evenodd" clip-rule="evenodd" d="M38.538 27.133L45.4891 22.136C45.5465 22.1369 45.6049 22.1389 45.6642 22.1389C49.9163 22.1389 53.3743 18.6534 53.3743 14.3694C53.3743 10.0854 49.9153 6.60181 45.6642 6.60181C41.4132 6.60181 37.9532 10.0863 37.9532 14.3694C37.9532 14.4043 37.9532 14.4364 37.9532 14.4694L33.0794 21.5861C32.9724 21.5803 32.8644 21.5774 32.7573 21.5774C31.5508 21.5774 30.4289 21.9514 29.5007 22.5916L19.2861 18.3377C19.2569 18.7816 19.2413 19.2285 19.2413 19.6792C19.2413 21.7717 19.5683 23.7884 20.1744 25.6807L27.0818 28.5571C27.6131 31.2256 29.9551 33.2404 32.7573 33.2404C35.9478 33.2404 38.5448 30.6243 38.5448 27.4089C38.5448 27.3176 38.5409 27.2243 38.538 27.133ZM34.4212 23.3571C35.4915 23.8078 36.3253 24.65 36.7671 25.7303C37.2098 26.8105 37.2059 28.0005 36.7603 29.0788C35.8388 31.3063 33.2905 32.3632 31.0809 31.4355C30.0573 31.0051 29.2866 30.2231 28.842 29.2906L31.3543 30.3358C32.984 31.0207 34.8571 30.2445 35.5362 28.6008C36.2164 26.9581 35.4448 25.0726 33.815 24.3877L31.22 23.3075C32.2212 22.9267 33.3587 22.9102 34.4221 23.3561L34.4212 23.3571ZM45.6642 19.5461C42.8308 19.5461 40.5258 17.2244 40.5258 14.3703C40.5258 11.5163 42.8308 9.19359 45.6642 9.19359C48.4976 9.19359 50.8027 11.5163 50.8027 14.3703C50.8027 17.2244 48.4976 19.5461 45.6642 19.5461Z" fill="black"/>
    <path fill-rule="evenodd" clip-rule="evenodd" d="M36.7602 29.0809C37.2048 28.0006 37.2087 26.8106 36.766 25.7314C36.3252 24.6502 35.4904 23.8089 34.4201 23.3562C33.379 22.9201 32.2639 22.9288 31.286 23.3077L33.8236 24.3646L33.8801 24.3889C35.5108 25.0727 36.2805 26.9593 35.6023 28.602C35.0856 29.857 33.8723 30.6031 32.6035 30.5846C32.2075 30.5866 31.8037 30.5157 31.4116 30.3612C31.3931 30.3525 31.3726 30.3447 31.3551 30.3369L28.9236 29.3266C29.3731 30.2427 30.1359 31.013 31.1469 31.4366C31.6801 31.661 32.2337 31.7688 32.7796 31.7737C34.4697 31.7591 36.0722 30.7469 36.7611 29.0799L36.7602 29.0809Z" fill="white"/>
</svg>
